<?xml version="1.0" encoding="UTF-8"?>
<svg xmlns="http://www.w3.org/2000/svg" version="1.1" xmlns:xlink="http://www.w3.org/1999/xlink" viewBox="0 0 815.26 373.87">
  <defs>
    <style>
      .cls-1 {
        letter-spacing: 0em;
      }

      .cls-2 {
        clip-path: url(#clippath-6);
      }

      .cls-3 {
        clip-path: url(#clippath-7);
      }

      .cls-4 {
        clip-path: url(#clippath-17);
      }

      .cls-5 {
        clip-path: url(#clippath-15);
      }

      .cls-6 {
        clip-path: url(#clippath-18);
      }

      .cls-7 {
        clip-path: url(#clippath-4);
      }

      .cls-8 {
        letter-spacing: .02em;
      }

      .cls-9 {
        clip-path: url(#clippath-9);
      }

      .cls-10 {
        clip-path: url(#clippath-10);
      }

      .cls-11 {
        letter-spacing: .02em;
      }

      .cls-12 {
        letter-spacing: .02em;
      }

      .cls-13 {
        letter-spacing: .03em;
      }

      .cls-14 {
        letter-spacing: .03em;
      }

      .cls-15 {
        letter-spacing: .02em;
      }

      .cls-15, .cls-16 {
        fill: #4e341d;
        font-family: Poppins-Light, Poppins;
        font-size: 31.74px;
        font-weight: 300;
      }

      .cls-17 {
        clip-path: url(#clippath-11);
      }

      .cls-18, .cls-19 {
        fill: none;
      }

      .cls-20 {
        letter-spacing: .02em;
      }

      .cls-21 {
        clip-path: url(#clippath-1);
      }

      .cls-19 {
        stroke: #b32825;
        stroke-miterlimit: 10;
      }

      .cls-22 {
        letter-spacing: .02em;
      }

      .cls-23 {
        clip-path: url(#clippath-5);
      }

      .cls-24 {
        clip-path: url(#clippath-8);
      }

      .cls-25 {
        clip-path: url(#clippath-3);
      }

      .cls-26 {
        letter-spacing: .03em;
      }

      .cls-27 {
        letter-spacing: .02em;
      }

      .cls-28 {
        letter-spacing: .02em;
      }

      .cls-29 {
        letter-spacing: .02em;
      }

      .cls-30 {
        clip-path: url(#clippath-12);
      }

      .cls-31 {
        fill: #b42025;
      }

      .cls-32 {
        letter-spacing: .02em;
      }

      .cls-33 {
        clip-path: url(#clippath-14);
      }

      .cls-34 {
        clip-path: url(#clippath-19);
      }

      .cls-35 {
        letter-spacing: .02em;
      }

      .cls-36 {
        letter-spacing: .02em;
      }

      .cls-37 {
        letter-spacing: .02em;
      }

      .cls-38 {
        letter-spacing: .02em;
      }

      .cls-39 {
        clip-path: url(#clippath-16);
      }

      .cls-40 {
        fill: #431d15;
      }

      .cls-41 {
        clip-path: url(#clippath-2);
      }

      .cls-42 {
        letter-spacing: .02em;
      }

      .cls-43 {
        clip-path: url(#clippath-13);
      }

      .cls-44 {
        letter-spacing: .02em;
      }

      .cls-45 {
        clip-path: url(#clippath);
      }
    </style>
    <clipPath id="clippath">
      <rect class="cls-18" x="-835.26" width="815.26" height="373.87"/>
    </clipPath>
    <clipPath id="clippath-1">
      <rect class="cls-18" x="-835.26" width="815.26" height="373.87"/>
    </clipPath>
    <clipPath id="clippath-2">
      <rect class="cls-18" x="835.26" width="815.26" height="373.87"/>
    </clipPath>
    <clipPath id="clippath-3">
      <rect class="cls-18" x="835.26" width="815.26" height="373.87"/>
    </clipPath>
    <clipPath id="clippath-4">
      <rect class="cls-18" x="1670.52" width="815.26" height="373.87"/>
    </clipPath>
    <clipPath id="clippath-5">
      <rect class="cls-18" x="1670.52" width="815.26" height="373.87"/>
    </clipPath>
    <clipPath id="clippath-6">
      <rect class="cls-18" x="2505.78" width="815.26" height="373.87"/>
    </clipPath>
    <clipPath id="clippath-7">
      <rect class="cls-18" x="2505.78" width="815.26" height="373.87"/>
    </clipPath>
    <clipPath id="clippath-8">
      <rect class="cls-18" x="3341.04" width="815.26" height="373.87"/>
    </clipPath>
    <clipPath id="clippath-9">
      <rect class="cls-18" x="3341.04" width="815.26" height="373.87"/>
    </clipPath>
    <clipPath id="clippath-10">
      <rect class="cls-18" x="4176.3" width="815.26" height="373.87"/>
    </clipPath>
    <clipPath id="clippath-11">
      <rect class="cls-18" x="4176.3" width="815.26" height="373.87"/>
    </clipPath>
    <clipPath id="clippath-12">
      <rect class="cls-18" x="5011.57" width="815.26" height="373.87"/>
    </clipPath>
    <clipPath id="clippath-13">
      <rect class="cls-18" x="5011.57" width="815.26" height="373.87"/>
    </clipPath>
    <clipPath id="clippath-14">
      <rect class="cls-18" x="5846.83" width="815.26" height="373.87"/>
    </clipPath>
    <clipPath id="clippath-15">
      <rect class="cls-18" x="5846.83" width="815.26" height="373.87"/>
    </clipPath>
    <clipPath id="clippath-16">
      <rect class="cls-18" x="6682.09" width="815.26" height="373.87"/>
    </clipPath>
    <clipPath id="clippath-17">
      <rect class="cls-18" x="6682.09" width="815.26" height="373.87"/>
    </clipPath>
    <clipPath id="clippath-18">
      <rect class="cls-18" x="-8639.26" y="393.87" width="815.26" height="373.87"/>
    </clipPath>
    <clipPath id="clippath-19">
      <rect class="cls-18" x="-8639.26" y="393.87" width="815.26" height="373.87"/>
    </clipPath>
  </defs>
  <!-- Generator: Adobe Illustrator 28.7.1, SVG Export Plug-In . SVG Version: 1.2.0 Build 142)  -->
  <g>
    <g id="Layer_1">
      <g class="cls-45">
        <g class="cls-21">
          <path class="cls-40" d="M-629.49,137.43c.44,1.89-2.04,2.47-2.91.87-2.32-3.78-14.39-15.12-23.84-15.12h-4.94v61.34c0,11.34,6.83,9.74,7.12,11.77.15.87-.73,1.45-1.45,1.45-.87,0-9.3-2.04-16.13-2.04s-15.26,2.04-16.13,2.04-1.6-.58-1.45-1.45c.29-2.04,6.98-.44,6.98-11.77v-61.34h-4.94c-9.45,0-21.51,11.34-23.69,15.12-.87,1.6-3.34,1.02-3.05-.87.58-3.34,3.05-20.64,3.05-20.64h78.49s2.47,17.3,2.91,20.64"/>
          <path class="cls-40" d="M-560.89,196.3c.14.87-.58,1.45-1.45,1.45-1.74,0-8.72-1.74-13.81-1.74s-12.21,1.74-13.95,1.74c-.73,0-1.6-.58-1.45-1.45.29-2.03,6.98-.44,6.98-11.77v-18.46c0-18.32-13.52-19.77-21.08-10.03v28.49c0,11.34,6.83,9.74,7.12,11.77.15.87-.73,1.45-1.45,1.45-1.74,0-8.72-1.74-13.95-1.74s-12.21,1.74-13.95,1.74c-.73,0-1.6-.58-1.45-1.45.29-2.03,7.12-.44,7.12-11.77v-48.4c0-11.34-7.27-12.5-7.12-14.54,0-.73.73-1.31,1.45-1.31,6.98,0,16.86-5.67,18.75-7.99,1.74-1.89,3.49-1.6,3.49.44v33.87c1.6-1.16,8.29-5.82,15.12-5.82,14.24,0,22.67,9.59,22.67,25.29v18.46c0,11.34,6.69,9.74,6.98,11.77"/>
          <path class="cls-40" d="M-506.24,182.35c-4.65,8.58-15.41,15.41-26.02,15.41-16.42,0-29.8-12.79-29.8-28.49s13.37-28.49,29.8-28.49c22.97,0,29.51,18.46,19.48,28.78-7.56,7.99-25.15,10.03-30.09,1.45,1.16,22.1,24.71,19.48,33,11.05,2.03-2.18,4.8-1.89,3.63.29M-542.72,166.36c15.26,8.58,24.86-16.42,14.68-18.46-7.41-1.45-13.81,7.56-14.68,18.46"/>
          <path class="cls-40" d="M-388.8,118.53c-1.16,2.18-9.89,6.25-15.84,21.66l-17.44,44.33c-4.51,11.48,3.05,9.3,2.33,11.92-.29.73-1.31,1.31-2.03,1.31-.44,0-7.85-1.75-13.81-1.75s-13.95,1.75-14.54,1.75c-.87,0-1.6-.44-1.89-1.02-.73-2.76,6.69-.87,2.32-12.21l-21.66-54.51c-4.51-11.48-10.76-9.3-11.92-11.34-.44-.87.29-1.89,1.16-1.89.73,0,11.48,1.89,18.46,1.89s14.53-1.89,15.26-1.89c1.16,0,2.04.44,1.89,1.16-.44,2.04-6.69.58-2.18,12.06l20.64,52.18,16.72-42.3c3.34-8.43-.44-17.73-5.67-20.79-1.31-.73-.58-2.33,1.02-2.33.44,0,7.99,1.89,13.37,1.89,4.8,0,12.5-1.89,12.94-1.89.73,0,1.31,1.02.87,1.74"/>
          <path class="cls-40" d="M-381.68,196.01c-5.23,0-12.21,1.74-13.95,1.74-.73,0-1.6-.58-1.45-1.45.29-2.04,7.12-.44,7.12-11.77v-18.61c0-11.48-7.27-12.5-7.12-14.53,0-.73.73-1.31,1.45-1.31,6.98,0,16.86-5.67,18.75-8,1.74-2.03,3.49-1.6,3.49.29v42.15c0,11.34,6.83,9.74,7.12,11.77.15.87-.73,1.45-1.6,1.45-1.6,0-8.58-1.74-13.81-1.74M-390.83,129c0-5.09,4.07-9.16,9.01-9.16s9.16,4.07,9.16,9.16-4.07,9.01-9.16,9.01-9.01-4.07-9.01-9.01"/>
          <path class="cls-40" d="M-273.54,196.3c.15.87-.73,1.45-1.45,1.45-.58,0-13.81-3.93-22.24,0v-6.83c-2.62,3.49-9.45,6.83-19.33,6.83-16.57,0-21.95-18.75-2.33-26.31,7.7-3.05,21.51-4.94,21.51-12.21,0-9.59-14.83-15.55-31.83-2.91-5.96,4.36-11.05,10.47-13.37,17.15v11.05c0,11.34,6.83,9.74,7.12,11.77.15.87-.73,1.45-1.6,1.45-1.6,0-8.58-1.75-13.81-1.75s-12.21,1.75-13.95,1.75c-.73,0-1.6-.58-1.45-1.45.29-2.03,7.12-.44,7.12-11.77v-18.61c0-11.48-7.27-12.5-7.12-14.54,0-.73.73-1.31,1.45-1.31,6.98,0,16.86-5.67,18.75-7.99,1.6-2.04,3.49-1.6,3.49.29v19.04c9.59-14.1,26.02-20.64,36.92-20.64,14.83,0,25,6.4,25,22.97v20.79c0,11.34,6.83,9.74,7.12,11.77M-297.23,183.8v-14.54c-3.63,3.05-18.75,7.7-16.72,15.7,2.03,7.41,11.19,5.52,16.72-1.16"/>
          <path class="cls-40" d="M-247.52,146.01c-4.51.15-7.56,2.91-6.54,7.56,1.6,6.69,12.5,10.32,18.89,14.24l1.46.87c4.21,2.91,6.83,7.12,7.7,10.76,2.03,8.58-5.53,17.44-20.79,18.17-14.83.73-24.42-3.93-26.02-10.47-2.33-10.18,16.57-12.06,19.04-3.34-6.98,2.04-3.2,8.72,2.91,8.58,4.51,0,7.7-2.76,6.54-7.56-1.6-6.54-12.06-10.47-18.46-14.25l-1.6-1.02c-4.07-2.76-6.98-6.98-7.85-10.61-2.03-8.43,5.38-17.3,20.79-18.17,14.83-.73,24.28,3.92,25.87,10.61,2.47,10.18-16.57,12.06-19.04,3.34,6.98-2.04,3.34-8.72-2.91-8.72"/>
          <path class="cls-40" d="M-165.84,197.75c-.58,0-13.81-3.93-22.24,0v-6.83c-2.62,3.49-9.3,6.83-19.33,6.83-16.42,0-21.95-18.75-2.33-26.31,7.85-3.05,21.66-4.94,21.66-12.21s-3.63-13.66-10.47-12.64c-7.85,1.31-8.43,13.23-.44,13.23,0,10.47-20.93,12.06-20.93-1.45,0-9.45,10.47-17.59,23.4-17.59,14.83,0,25.15,6.4,25.15,22.97v20.79c0,11.34,6.69,9.74,6.98,11.77.15.87-.73,1.45-1.45,1.45M-188.08,169.26c-3.49,3.05-18.75,7.7-16.57,15.7,1.89,7.41,11.05,5.52,16.57-1.16v-14.54Z"/>
          <path class="cls-40" d="M-125.43,184.96c-6.25,15.84-36.77,20.06-36.77-6.25v-32.12h-8.43v-4.36c12.21,0,19.62-18.61,21.66-20.93,1.6-2.03,3.49-1.6,3.49.29v19.19h18.32v5.81h-18.32v31.4c0,19.77,10.9,13.95,15.7,6.98,1.6-2.33,5.23-2.03,4.36,0"/>
          <path class="cls-19" d="M-728.03,181.27c-4.05,4.29-3.18,8.26-3.04,11.36.09,2.05-.83,3.97-1.24,4.41l-.02-.04c.02-.39-.11-.93-.45-1.61-6.37-12.7-4.6-31.64,4.28-36.4,1.03-.55,1.82-1.16,2.43-1.8l.04.02c1.79,2.52,5.03,16.63-2,24.07Z"/>
          <path class="cls-19" d="M-749.81,145.75s8.59,9.74,21.72-.46c0,0,8.46,8.94-.42,13.7-8.88,4.76-10.65,23.7-4.28,36.4,2.52,5.02-6.13,2.29-8.27-10.53-2.14-12.82-2.56-9.94-7.77-17.68-5.21-7.74-.98-21.44-.98-21.44Z"/>
          <path class="cls-19" d="M-732.24,196.73s-2.76-4.78-.29-15.17c3.02-12.73,7.43-16.31,3.43-22.24"/>
          <path class="cls-19" d="M-728.09,145.29c-13.13,10.19-21.72.45-21.72.45,0,0-3.55-5.7,1.34-11.31,0,0,7.82,6.97,17.93.24,0,0,5,2.33,2.45,10.61Z"/>
          <path class="cls-19" d="M-730.53,134.68c-9.9,6.59-17.61.05-17.92-.23h-.01s-3.81-5.59,3.12-11.26c0,0,8.31,5.35,14.18.35,0,0,3.5,6.23.64,11.14Z"/>
          <path class="cls-19" d="M-731.32,123.54l-.04.14c-5.85,4.74-14-.5-14-.5,0,0,1.47-4.05,4.42-5.8,0,0,2.78,2.18,6.67.27,0,0,3.35,2.46,2.95,5.89Z"/>
          <path class="cls-19" d="M-734.26,117.65c-3.81,1.86-6.55-.18-6.67-.27h0s.21-4.78,3.45-6.36c0,0,3.3,2.16,3.22,6.63Z"/>
          <path class="cls-19" d="M-746.65,151s-2.06,1.96-2.16,3.33c-.1,1.37,1.27,3.11,1.27,3.11,0,0,1.86-1.63,2.14-2.49.49-1.5-1.25-3.94-1.25-3.94Z"/>
          <path class="cls-19" d="M-746.51,137.83s-1.71,1.32-1.89,2.35c-.18,1.03.72,2.45.72,2.45,0,0,1.53-1.09,1.82-1.72.49-1.1-.64-3.08-.64-3.08Z"/>
          <path class="cls-19" d="M-743.62,126.44s-1.71,1.32-1.89,2.35c-.18,1.03.72,2.45.72,2.45,0,0,1.53-1.09,1.82-1.72.49-1.1-.64-3.08-.64-3.08Z"/>
          <path class="cls-19" d="M-734.02,126.91s-.73,2.04-.33,3c.4.96,1.93,1.68,1.93,1.68,0,0,.7-1.74.6-2.43-.18-1.19-2.2-2.25-2.2-2.25Z"/>
          <path class="cls-19" d="M-738.71,127.38s-1.43,1.63-1.4,2.67c.02,1.04,1.18,2.27,1.18,2.27,0,0,1.29-1.37,1.45-2.04.27-1.17-1.23-2.9-1.23-2.9Z"/>
          <path class="cls-19" d="M-739.98,119.53s-1.32,1.22-1.39,2.08c-.07.86.78,1.97.78,1.97,0,0,1.19-1.01,1.37-1.55.32-.94-.76-2.5-.76-2.5Z"/>
          <path class="cls-19" d="M-736.47,119.89s-.9,1.55-.71,2.4c.19.84,1.33,1.65,1.33,1.65,0,0,.83-1.32.85-1.89.03-.99-1.46-2.16-1.46-2.16Z"/>
          <path class="cls-19" d="M-737.66,113.46s-.99,1.14-.97,1.86.83,1.57.83,1.57c0,0,.9-.95,1-1.42.18-.81-.86-2.01-.86-2.01Z"/>
          <path class="cls-19" d="M-741.51,139.34s-1.44,1.61-1.43,2.66c.01,1.04,1.16,2.28,1.16,2.28,0,0,1.31-1.35,1.47-2.02.28-1.17-1.2-2.91-1.2-2.91Z"/>
          <path class="cls-19" d="M-736.67,139.55s-.98,1.93-.71,2.93,1.7,1.91,1.7,1.91c0,0,.92-1.64.9-2.33-.03-1.2-1.9-2.51-1.9-2.51Z"/>
          <path class="cls-19" d="M-732.37,137.78s-.55,2.09-.07,3.02c.49.92,2.07,1.5,2.07,1.5,0,0,.55-1.8.39-2.47-.28-1.17-2.39-2.05-2.39-2.05Z"/>
          <path class="cls-19" d="M-729.91,149.38s-1.27,2.38-.86,3.7,2.34,2.64,2.34,2.64c0,0,1.19-2.02,1.15-2.91-.07-1.55-2.63-3.44-2.63-3.44Z"/>
          <path class="cls-19" d="M-740.9,153.01s-1.66,1.92-1.6,3.16c.06,1.24,1.48,2.71,1.48,2.71,0,0,1.51-1.61,1.67-2.41.29-1.39-1.55-3.47-1.55-3.47Z"/>
          <path class="cls-19" d="M-735.21,153.09s-1.18,1.82-.96,2.9c.22,1.07,1.66,2.22,1.66,2.22,0,0,1.09-1.54,1.13-2.25.06-1.23-1.83-2.86-1.83-2.86Z"/>
          <path class="cls-19" d="M-750.74,142.77s10.03,8.79,22.93.29"/>
          <path class="cls-19" d="M-749.4,130.94s9.08,7.72,19.79.61"/>
          <path class="cls-19" d="M-729.78,159.75s-10.11,6.31-21.4-.77"/>
          <path class="cls-19" d="M-746.66,161.28s-1.41,2.6,4.82,12.52c3.54,5.64,2.27,20.04,8.85,23.87"/>
          <path class="cls-19" d="M-111.23,181.27c4.05,4.29,3.18,8.26,3.04,11.36-.09,2.05.83,3.97,1.24,4.41l.02-.04c-.02-.39.11-.93.45-1.61,6.37-12.7,4.6-31.64-4.28-36.4-1.03-.55-1.83-1.16-2.43-1.8l-.04.02c-1.79,2.52-5.03,16.63,2,24.07Z"/>
          <path class="cls-19" d="M-89.45,145.75s-8.6,9.74-21.72-.46c0,0-8.47,8.94.42,13.7,8.88,4.76,10.65,23.7,4.28,36.4-2.52,5.02,6.13,2.29,8.27-10.53,2.14-12.82,2.56-9.94,7.77-17.68,5.21-7.74.98-21.44.98-21.44Z"/>
          <path class="cls-19" d="M-107.02,196.73s2.75-4.78.29-15.17c-3.02-12.73-7.43-16.31-3.43-22.24"/>
          <path class="cls-19" d="M-111.17,145.29c13.13,10.19,21.72.45,21.72.45,0,0,3.54-5.7-1.34-11.31,0,0-7.82,6.97-17.93.24,0,0-5,2.33-2.45,10.61Z"/>
          <path class="cls-19" d="M-108.73,134.68c9.9,6.59,17.6.05,17.92-.23h.01s3.8-5.59-3.12-11.26c0,0-8.31,5.35-14.18.35,0,0-3.5,6.23-.64,11.14Z"/>
          <path class="cls-19" d="M-107.94,123.54l.03.14c5.85,4.74,14-.5,14-.5,0,0-1.47-4.05-4.42-5.8,0,0-2.78,2.18-6.67.27,0,0-3.35,2.46-2.94,5.89Z"/>
          <path class="cls-19" d="M-105,117.65c3.81,1.86,6.55-.18,6.66-.27h0s-.21-4.78-3.45-6.36c0,0-3.3,2.16-3.22,6.63Z"/>
          <path class="cls-19" d="M-92.62,151s2.06,1.96,2.16,3.33c.1,1.37-1.27,3.11-1.27,3.11,0,0-1.86-1.63-2.14-2.49-.49-1.5,1.26-3.94,1.26-3.94Z"/>
          <path class="cls-19" d="M-92.75,137.83s1.71,1.32,1.89,2.35c.18,1.03-.72,2.45-.72,2.45,0,0-1.53-1.09-1.82-1.72-.49-1.1.64-3.08.64-3.08Z"/>
          <path class="cls-19" d="M-95.64,126.44s1.71,1.32,1.89,2.35c.18,1.03-.72,2.45-.72,2.45,0,0-1.53-1.09-1.82-1.72-.49-1.1.64-3.08.64-3.08Z"/>
          <path class="cls-19" d="M-105.24,126.91s.73,2.04.33,3c-.4.96-1.93,1.68-1.93,1.68,0,0-.7-1.74-.6-2.43.18-1.19,2.2-2.25,2.2-2.25Z"/>
          <path class="cls-19" d="M-100.55,127.38s1.42,1.63,1.4,2.67c-.02,1.04-1.18,2.27-1.18,2.27,0,0-1.29-1.37-1.45-2.04-.27-1.17,1.23-2.9,1.23-2.9Z"/>
          <path class="cls-19" d="M-99.28,119.53s1.32,1.22,1.39,2.08c.07.86-.78,1.97-.78,1.97,0,0-1.19-1.01-1.37-1.55-.32-.94.76-2.5.76-2.5Z"/>
          <path class="cls-19" d="M-102.79,119.89s.9,1.55.71,2.4c-.19.84-1.33,1.65-1.33,1.65,0,0-.83-1.32-.85-1.89-.03-.99,1.46-2.16,1.46-2.16Z"/>
          <path class="cls-19" d="M-101.6,113.46s.99,1.14.97,1.86-.83,1.57-.83,1.57c0,0-.9-.95-1-1.42-.18-.81.86-2.01.86-2.01Z"/>
          <path class="cls-19" d="M-97.75,139.34s1.44,1.61,1.43,2.66c-.01,1.04-1.16,2.28-1.16,2.28,0,0-1.31-1.35-1.47-2.02-.28-1.17,1.2-2.91,1.2-2.91Z"/>
          <path class="cls-19" d="M-102.59,139.55s.98,1.93.7,2.93c-.28,1-1.7,1.91-1.7,1.91,0,0-.92-1.64-.9-2.33.03-1.2,1.9-2.51,1.9-2.51Z"/>
          <path class="cls-19" d="M-106.89,137.78s.55,2.09.06,3.02c-.48.92-2.07,1.5-2.07,1.5,0,0-.55-1.8-.39-2.47.28-1.17,2.39-2.05,2.39-2.05Z"/>
          <path class="cls-19" d="M-109.35,149.38s1.26,2.38.86,3.7-2.34,2.64-2.34,2.64c0,0-1.19-2.02-1.15-2.91.07-1.55,2.63-3.44,2.63-3.44Z"/>
          <path class="cls-19" d="M-98.36,153.01s1.66,1.92,1.6,3.16c-.06,1.24-1.48,2.71-1.48,2.71,0,0-1.51-1.61-1.67-2.41-.29-1.39,1.55-3.47,1.55-3.47Z"/>
          <path class="cls-19" d="M-104.05,153.09s1.18,1.82.96,2.9c-.22,1.07-1.66,2.22-1.66,2.22,0,0-1.09-1.54-1.13-2.25-.06-1.23,1.83-2.86,1.83-2.86Z"/>
          <path class="cls-19" d="M-88.52,142.77s-10.03,8.79-22.94.29"/>
          <path class="cls-19" d="M-89.86,130.94s-9.08,7.72-19.8.61"/>
          <path class="cls-19" d="M-109.48,159.75s10.11,6.31,21.4-.77"/>
          <path class="cls-19" d="M-92.6,161.28s1.41,2.6-4.82,12.52c-3.54,5.64-2.27,20.04-8.85,23.87"/>
          <line class="cls-19" x1="-757.91" y1="206.39" x2="-97.44" y2="206.39"/>
          <path class="cls-19" d="M-97.86,206.39c10.02,0,18.14,8.12,18.14,18.14,0,8.01-6.5,14.51-14.51,14.51-6.41,0-11.61-5.2-11.61-11.61,0-5.13,4.16-9.29,9.29-9.29,4.1,0,7.43,3.33,7.43,7.43,0,3.28-2.66,5.94-5.95,5.94-2.63,0-4.76-2.13-4.76-4.76,0-2.1,1.7-3.81,3.8-3.81,1.68,0,3.04,1.36,3.04,3.04,0,1.34-1.09,2.43-2.43,2.43-1.08,0-1.95-.87-1.95-1.95,0-.86.7-1.56,1.56-1.56"/>
          <path class="cls-19" d="M-757.4,206.39c-10.02,0-18.14-8.12-18.14-18.14,0-8.01,6.5-14.51,14.51-14.51,6.41,0,11.61,5.2,11.61,11.61,0,5.13-4.16,9.29-9.29,9.29-4.1,0-7.43-3.33-7.43-7.43,0-3.28,2.66-5.94,5.94-5.94,2.63,0,4.76,2.13,4.76,4.76,0,2.1-1.7,3.8-3.8,3.8-1.68,0-3.04-1.36-3.04-3.04,0-1.35,1.09-2.43,2.43-2.43,1.08,0,1.95.87,1.95,1.95,0,.86-.7,1.56-1.56,1.56"/>
        </g>
        <text class="cls-16" transform="translate(-717.59 244.95)"><tspan class="cls-12" x="0" y="0">Co</tspan><tspan class="cls-27" x="46.37" y="0">nn</tspan><tspan class="cls-36" x="88.13" y="0">e</tspan><tspan class="cls-13" x="108.63" y="0">cting </tspan><tspan class="cls-36" x="201.62" y="0">h</tspan><tspan class="cls-26" x="222.47" y="0">ea</tspan><tspan class="cls-32" x="265.22" y="0">r</tspan><tspan class="cls-27" x="277.47" y="0">t</tspan><tspan class="cls-12" x="289.56" y="0">s</tspan><tspan class="cls-13" x="306.51" y="0" xml:space="preserve"> t</tspan><tspan class="cls-12" x="328.09" y="0">hro</tspan><tspan class="cls-27" x="382.33" y="0">ugh h</tspan><tspan class="cls-12" x="476.68" y="0">er</tspan><tspan class="cls-27" x="509.43" y="0">itag</tspan><tspan x="574.01" y="0">e</tspan></text>
      </g>
      <g>
        <g>
          <path class="cls-31" d="M197.77,140.38c.44,1.89-2.04,2.47-2.91.87-2.32-3.78-14.39-15.12-23.84-15.12h-4.94v61.34c0,11.34,6.83,9.74,7.12,11.77.15.87-.73,1.45-1.45,1.45-.87,0-9.3-2.04-16.13-2.04s-15.26,2.04-16.13,2.04-1.6-.58-1.45-1.45c.29-2.04,6.98-.44,6.98-11.77v-61.34h-4.94c-9.45,0-21.51,11.34-23.69,15.12-.87,1.6-3.34,1.02-3.05-.87.58-3.34,3.05-20.64,3.05-20.64h78.49s2.47,17.3,2.91,20.64"/>
          <path class="cls-31" d="M266.37,199.25c.14.87-.58,1.45-1.45,1.45-1.74,0-8.72-1.74-13.81-1.74s-12.21,1.74-13.95,1.74c-.73,0-1.6-.58-1.45-1.45.29-2.03,6.98-.44,6.98-11.77v-18.46c0-18.32-13.52-19.77-21.08-10.03v28.49c0,11.34,6.83,9.74,7.12,11.77.15.87-.73,1.45-1.45,1.45-1.74,0-8.72-1.74-13.95-1.74s-12.21,1.74-13.95,1.74c-.73,0-1.6-.58-1.45-1.45.29-2.03,7.12-.44,7.12-11.77v-48.4c0-11.34-7.27-12.5-7.12-14.54,0-.73.73-1.31,1.45-1.31,6.98,0,16.86-5.67,18.75-7.99,1.74-1.89,3.49-1.6,3.49.44v33.87c1.6-1.16,8.29-5.82,15.12-5.82,14.24,0,22.67,9.59,22.67,25.29v18.46c0,11.34,6.69,9.74,6.98,11.77"/>
          <path class="cls-31" d="M321.02,185.3c-4.65,8.58-15.41,15.41-26.02,15.41-16.42,0-29.8-12.79-29.8-28.49s13.37-28.49,29.8-28.49c22.97,0,29.51,18.46,19.48,28.78-7.56,7.99-25.15,10.03-30.09,1.45,1.16,22.1,24.71,19.48,33,11.05,2.03-2.18,4.8-1.89,3.63.29M284.54,169.31c15.26,8.58,24.86-16.42,14.68-18.46-7.41-1.45-13.81,7.56-14.68,18.46"/>
          <path class="cls-31" d="M438.46,121.49c-1.16,2.18-9.89,6.25-15.84,21.66l-17.44,44.33c-4.51,11.48,3.05,9.3,2.33,11.92-.29.73-1.31,1.31-2.03,1.31-.44,0-7.85-1.75-13.81-1.75s-13.95,1.75-14.54,1.75c-.87,0-1.6-.44-1.89-1.02-.73-2.76,6.69-.87,2.32-12.21l-21.66-54.51c-4.51-11.48-10.76-9.3-11.92-11.34-.44-.87.29-1.89,1.16-1.89.73,0,11.48,1.89,18.46,1.89s14.53-1.89,15.26-1.89c1.16,0,2.04.44,1.89,1.16-.44,2.04-6.69.58-2.18,12.06l20.64,52.18,16.72-42.3c3.34-8.43-.44-17.73-5.67-20.79-1.31-.73-.58-2.33,1.02-2.33.44,0,7.99,1.89,13.37,1.89,4.8,0,12.5-1.89,12.94-1.89.73,0,1.31,1.02.87,1.74"/>
          <path class="cls-31" d="M445.58,198.96c-5.23,0-12.21,1.74-13.95,1.74-.73,0-1.6-.58-1.45-1.45.29-2.04,7.12-.44,7.12-11.77v-18.61c0-11.48-7.27-12.5-7.12-14.53,0-.73.73-1.31,1.45-1.31,6.98,0,16.86-5.67,18.75-8,1.74-2.03,3.49-1.6,3.49.29v42.15c0,11.34,6.83,9.74,7.12,11.77.15.87-.73,1.45-1.6,1.45-1.6,0-8.58-1.74-13.81-1.74M436.43,131.95c0-5.09,4.07-9.16,9.01-9.16s9.16,4.07,9.16,9.16-4.07,9.01-9.16,9.01-9.01-4.07-9.01-9.01"/>
          <path class="cls-31" d="M553.72,199.25c.15.87-.73,1.45-1.45,1.45-.58,0-13.81-3.93-22.24,0v-6.83c-2.62,3.49-9.45,6.83-19.33,6.83-16.57,0-21.95-18.75-2.33-26.31,7.7-3.05,21.51-4.94,21.51-12.21,0-9.59-14.83-15.55-31.83-2.91-5.96,4.36-11.05,10.47-13.37,17.15v11.05c0,11.34,6.83,9.74,7.12,11.77.15.87-.73,1.45-1.6,1.45-1.6,0-8.58-1.75-13.81-1.75s-12.21,1.75-13.95,1.75c-.73,0-1.6-.58-1.45-1.45.29-2.03,7.12-.44,7.12-11.77v-18.61c0-11.48-7.27-12.5-7.12-14.54,0-.73.73-1.31,1.45-1.31,6.98,0,16.86-5.67,18.75-7.99,1.6-2.04,3.49-1.6,3.49.29v19.04c9.59-14.1,26.02-20.64,36.92-20.64,14.83,0,25,6.4,25,22.97v20.79c0,11.34,6.83,9.74,7.12,11.77M530.03,186.75v-14.54c-3.63,3.05-18.75,7.7-16.72,15.7,2.03,7.41,11.19,5.52,16.72-1.16"/>
          <path class="cls-31" d="M579.74,148.96c-4.51.15-7.56,2.91-6.54,7.56,1.6,6.69,12.5,10.32,18.89,14.24l1.46.87c4.21,2.91,6.83,7.12,7.7,10.76,2.03,8.58-5.53,17.44-20.79,18.17-14.83.73-24.42-3.93-26.02-10.47-2.33-10.18,16.57-12.06,19.04-3.34-6.98,2.04-3.2,8.72,2.91,8.58,4.51,0,7.7-2.76,6.54-7.56-1.6-6.54-12.06-10.47-18.46-14.25l-1.6-1.02c-4.07-2.76-6.98-6.98-7.85-10.61-2.03-8.43,5.38-17.3,20.79-18.17,14.83-.73,24.28,3.92,25.87,10.61,2.47,10.18-16.57,12.06-19.04,3.34,6.98-2.04,3.34-8.72-2.91-8.72"/>
          <path class="cls-31" d="M661.42,200.71c-.58,0-13.81-3.93-22.24,0v-6.83c-2.62,3.49-9.3,6.83-19.33,6.83-16.42,0-21.95-18.75-2.33-26.31,7.85-3.05,21.66-4.94,21.66-12.21s-3.63-13.66-10.47-12.64c-7.85,1.31-8.43,13.23-.44,13.23,0,10.47-20.93,12.06-20.93-1.45,0-9.45,10.47-17.59,23.4-17.59,14.83,0,25.15,6.4,25.15,22.97v20.79c0,11.34,6.69,9.74,6.98,11.77.15.87-.73,1.45-1.45,1.45M639.19,172.22c-3.49,3.05-18.75,7.7-16.57,15.7,1.89,7.41,11.05,5.52,16.57-1.16v-14.54Z"/>
          <path class="cls-31" d="M701.83,187.92c-6.25,15.84-36.77,20.06-36.77-6.25v-32.12h-8.43v-4.36c12.21,0,19.62-18.61,21.66-20.93,1.6-2.03,3.49-1.6,3.49.29v19.19h18.32v5.81h-18.32v31.4c0,19.77,10.9,13.95,15.7,6.98,1.6-2.33,5.23-2.03,4.36,0"/>
        </g>
        <g>
          <line class="cls-19" x1="89.44" y1="209.34" x2="725.32" y2="209.34"/>
          <path class="cls-19" d="M725.08,209.34c10.02,0,18.14,8.12,18.14,18.14,0,8.01-6.5,14.51-14.51,14.51-6.41,0-11.61-5.2-11.61-11.61,0-5.13,4.16-9.29,9.29-9.29,4.1,0,7.43,3.33,7.43,7.43,0,3.28-2.66,5.94-5.95,5.94-2.63,0-4.76-2.13-4.76-4.76,0-2.1,1.7-3.81,3.8-3.81,1.68,0,3.04,1.36,3.04,3.04,0,1.34-1.09,2.43-2.43,2.43-1.08,0-1.95-.87-1.95-1.95,0-.86.7-1.56,1.56-1.56"/>
          <path class="cls-19" d="M90.18,209.34c-10.02,0-18.14-8.12-18.14-18.14,0-8.01,6.5-14.51,14.51-14.51,6.41,0,11.61,5.2,11.61,11.61,0,5.13-4.16,9.29-9.29,9.29-4.1,0-7.43-3.33-7.43-7.43,0-3.28,2.66-5.94,5.94-5.94,2.63,0,4.76,2.13,4.76,4.76,0,2.1-1.7,3.8-3.8,3.8-1.68,0-3.04-1.36-3.04-3.04,0-1.35,1.09-2.43,2.43-2.43,1.08,0,1.95.87,1.95,1.95,0,.86-.7,1.56-1.56,1.56"/>
        </g>
        <text class="cls-15" transform="translate(113.29 242)"><tspan x="0" y="0">Connecting hearts through heritage</tspan></text>
      </g>
      <g class="cls-41">
        <g class="cls-25">
          <path class="cls-31" d="M1031.36,140.38c.44,1.89-2.04,2.47-2.91.87-2.32-3.78-14.39-15.12-23.84-15.12h-4.94v61.34c0,11.34,6.83,9.74,7.12,11.77.15.87-.73,1.45-1.45,1.45-.87,0-9.3-2.04-16.13-2.04s-15.26,2.04-16.13,2.04-1.6-.58-1.45-1.45c.29-2.04,6.98-.44,6.98-11.77v-61.34h-4.94c-9.45,0-21.51,11.34-23.69,15.12-.87,1.6-3.34,1.02-3.05-.87.58-3.34,3.05-20.64,3.05-20.64h78.49s2.47,17.3,2.91,20.64"/>
          <path class="cls-31" d="M1099.96,199.25c.14.87-.58,1.45-1.45,1.45-1.74,0-8.72-1.74-13.81-1.74s-12.21,1.74-13.95,1.74c-.73,0-1.6-.58-1.45-1.45.29-2.03,6.98-.44,6.98-11.77v-18.46c0-18.32-13.52-19.77-21.08-10.03v28.49c0,11.34,6.83,9.74,7.12,11.77.15.87-.73,1.45-1.45,1.45-1.74,0-8.72-1.74-13.95-1.74s-12.21,1.74-13.95,1.74c-.73,0-1.6-.58-1.45-1.45.29-2.03,7.12-.44,7.12-11.77v-48.4c0-11.34-7.27-12.5-7.12-14.54,0-.73.73-1.31,1.45-1.31,6.98,0,16.86-5.67,18.75-7.99,1.74-1.89,3.49-1.6,3.49.44v33.87c1.6-1.16,8.29-5.82,15.12-5.82,14.24,0,22.67,9.59,22.67,25.29v18.46c0,11.34,6.69,9.74,6.98,11.77"/>
          <path class="cls-31" d="M1154.61,185.3c-4.65,8.58-15.41,15.41-26.02,15.41-16.42,0-29.8-12.79-29.8-28.49s13.37-28.49,29.8-28.49c22.97,0,29.51,18.46,19.48,28.78-7.56,7.99-25.15,10.03-30.09,1.45,1.16,22.1,24.71,19.48,33,11.05,2.03-2.18,4.8-1.89,3.63.29M1118.13,169.31c15.26,8.58,24.86-16.42,14.68-18.46-7.41-1.45-13.81,7.56-14.68,18.46"/>
          <path class="cls-31" d="M1272.06,121.49c-1.16,2.18-9.89,6.25-15.84,21.66l-17.44,44.33c-4.51,11.48,3.05,9.3,2.33,11.92-.29.73-1.31,1.31-2.03,1.31-.44,0-7.85-1.75-13.81-1.75s-13.95,1.75-14.54,1.75c-.87,0-1.6-.44-1.89-1.02-.73-2.76,6.69-.87,2.32-12.21l-21.66-54.51c-4.51-11.48-10.76-9.3-11.92-11.34-.44-.87.29-1.89,1.16-1.89.73,0,11.48,1.89,18.46,1.89s14.53-1.89,15.26-1.89c1.16,0,2.04.44,1.89,1.16-.44,2.04-6.69.58-2.18,12.06l20.64,52.18,16.72-42.3c3.34-8.43-.44-17.73-5.67-20.79-1.31-.73-.58-2.33,1.02-2.33.44,0,7.99,1.89,13.37,1.89,4.8,0,12.5-1.89,12.94-1.89.73,0,1.31,1.02.87,1.74"/>
          <path class="cls-31" d="M1279.18,198.96c-5.23,0-12.21,1.74-13.95,1.74-.73,0-1.6-.58-1.45-1.45.29-2.04,7.12-.44,7.12-11.77v-18.61c0-11.48-7.27-12.5-7.12-14.53,0-.73.73-1.31,1.45-1.31,6.98,0,16.86-5.67,18.75-8,1.74-2.03,3.49-1.6,3.49.29v42.15c0,11.34,6.83,9.74,7.12,11.77.15.87-.73,1.45-1.6,1.45-1.6,0-8.58-1.74-13.81-1.74M1270.02,131.95c0-5.09,4.07-9.16,9.01-9.16s9.16,4.07,9.16,9.16-4.07,9.01-9.16,9.01-9.01-4.07-9.01-9.01"/>
          <path class="cls-31" d="M1387.32,199.25c.15.87-.73,1.45-1.45,1.45-.58,0-13.81-3.93-22.24,0v-6.83c-2.62,3.49-9.45,6.83-19.33,6.83-16.57,0-21.95-18.75-2.33-26.31,7.7-3.05,21.51-4.94,21.51-12.21,0-9.59-14.83-15.55-31.83-2.91-5.96,4.36-11.05,10.47-13.37,17.15v11.05c0,11.34,6.83,9.74,7.12,11.77.15.87-.73,1.45-1.6,1.45-1.6,0-8.58-1.75-13.81-1.75s-12.21,1.75-13.95,1.75c-.73,0-1.6-.58-1.45-1.45.29-2.03,7.12-.44,7.12-11.77v-18.61c0-11.48-7.27-12.5-7.12-14.54,0-.73.73-1.31,1.45-1.31,6.98,0,16.86-5.67,18.75-7.99,1.6-2.04,3.49-1.6,3.49.29v19.04c9.59-14.1,26.02-20.64,36.92-20.64,14.83,0,25,6.4,25,22.97v20.79c0,11.34,6.83,9.74,7.12,11.77M1363.63,186.75v-14.54c-3.63,3.05-18.75,7.7-16.72,15.7,2.03,7.41,11.19,5.52,16.72-1.16"/>
          <path class="cls-31" d="M1413.33,148.96c-4.51.15-7.56,2.91-6.54,7.56,1.6,6.69,12.5,10.32,18.89,14.24l1.46.87c4.21,2.91,6.83,7.12,7.7,10.76,2.03,8.58-5.53,17.44-20.79,18.17-14.83.73-24.42-3.93-26.02-10.47-2.33-10.18,16.57-12.06,19.04-3.34-6.98,2.04-3.2,8.72,2.91,8.58,4.51,0,7.7-2.76,6.54-7.56-1.6-6.54-12.06-10.47-18.46-14.25l-1.6-1.02c-4.07-2.76-6.98-6.98-7.85-10.61-2.03-8.43,5.38-17.3,20.79-18.17,14.83-.73,24.28,3.92,25.87,10.61,2.47,10.18-16.57,12.06-19.04,3.34,6.98-2.04,3.34-8.72-2.91-8.72"/>
          <path class="cls-31" d="M1495.02,200.71c-.58,0-13.81-3.93-22.24,0v-6.83c-2.62,3.49-9.3,6.83-19.33,6.83-16.42,0-21.95-18.75-2.33-26.31,7.85-3.05,21.66-4.94,21.66-12.21s-3.63-13.66-10.47-12.64c-7.85,1.31-8.43,13.23-.44,13.23,0,10.47-20.93,12.06-20.93-1.45,0-9.45,10.47-17.59,23.4-17.59,14.83,0,25.15,6.4,25.15,22.97v20.79c0,11.34,6.69,9.74,6.98,11.77.15.87-.73,1.45-1.45,1.45M1472.78,172.22c-3.49,3.05-18.75,7.7-16.57,15.7,1.89,7.41,11.05,5.52,16.57-1.16v-14.54Z"/>
          <path class="cls-31" d="M1535.43,187.92c-6.25,15.84-36.77,20.06-36.77-6.25v-32.12h-8.43v-4.36c12.21,0,19.62-18.61,21.66-20.93,1.6-2.03,3.49-1.6,3.49.29v19.19h18.32v5.81h-18.32v31.4c0,19.77,10.9,13.95,15.7,6.98,1.6-2.33,5.23-2.03,4.36,0"/>
          <line class="cls-19" x1="946.89" y1="209.34" x2="1535.56" y2="209.34"/>
        </g>
        <text class="cls-16" transform="translate(946.89 242)"><tspan class="cls-11" x="0" y="0">C</tspan><tspan class="cls-28" x="25.17" y="0">o</tspan><tspan class="cls-35" x="46.27" y="0">n</tspan><tspan class="cls-38" x="67.06" y="0">n</tspan><tspan class="cls-44" x="87.88" y="0">e</tspan><tspan class="cls-38" x="108.32" y="0">cti</tspan><tspan class="cls-11" x="148.53" y="0">n</tspan><tspan class="cls-28" x="169.31" y="0">g </tspan><tspan class="cls-11" x="200.89" y="0">he</tspan><tspan class="cls-28" x="242.12" y="0">a</tspan><tspan class="cls-35" x="264.27" y="0">r</tspan><tspan class="cls-28" x="276.46" y="0">t</tspan><tspan class="cls-11" x="288.48" y="0">s</tspan><tspan class="cls-38" x="305.37" y="0" xml:space="preserve"> t</tspan><tspan class="cls-35" x="326.82" y="0">hr</tspan><tspan class="cls-28" x="359.79" y="0">ough h</tspan><tspan class="cls-44" x="474.93" y="0">e</tspan><tspan class="cls-38" x="495.37" y="0">ritag</tspan><tspan x="571.92" y="0">e</tspan></text>
      </g>
      <g class="cls-7">
        <g class="cls-23">
          <path class="cls-31" d="M1868.29,137.43c.44,1.89-2.04,2.47-2.91.87-2.32-3.78-14.39-15.12-23.84-15.12h-4.94v61.34c0,11.34,6.83,9.74,7.12,11.77.15.87-.73,1.45-1.45,1.45-.87,0-9.3-2.04-16.13-2.04s-15.26,2.04-16.13,2.04-1.6-.58-1.45-1.45c.29-2.04,6.98-.44,6.98-11.77v-61.34h-4.94c-9.45,0-21.51,11.34-23.69,15.12-.87,1.6-3.34,1.02-3.05-.87.58-3.34,3.05-20.64,3.05-20.64h78.49s2.47,17.3,2.91,20.64"/>
          <path class="cls-31" d="M1936.89,196.3c.14.87-.58,1.45-1.45,1.45-1.74,0-8.72-1.74-13.81-1.74s-12.21,1.74-13.95,1.74c-.73,0-1.6-.58-1.45-1.45.29-2.03,6.98-.44,6.98-11.77v-18.46c0-18.32-13.52-19.77-21.08-10.03v28.49c0,11.34,6.83,9.74,7.12,11.77.15.87-.73,1.45-1.45,1.45-1.74,0-8.72-1.74-13.95-1.74s-12.21,1.74-13.95,1.74c-.73,0-1.6-.58-1.45-1.45.29-2.03,7.12-.44,7.12-11.77v-48.4c0-11.34-7.27-12.5-7.12-14.54,0-.73.73-1.31,1.45-1.31,6.98,0,16.86-5.67,18.75-7.99,1.74-1.89,3.49-1.6,3.49.44v33.87c1.6-1.16,8.29-5.82,15.12-5.82,14.24,0,22.67,9.59,22.67,25.29v18.46c0,11.34,6.69,9.74,6.98,11.77"/>
          <path class="cls-31" d="M1991.54,182.35c-4.65,8.58-15.41,15.41-26.02,15.41-16.42,0-29.8-12.79-29.8-28.49s13.37-28.49,29.8-28.49c22.97,0,29.51,18.46,19.48,28.78-7.56,7.99-25.15,10.03-30.09,1.45,1.16,22.1,24.71,19.48,33,11.05,2.03-2.18,4.8-1.89,3.63.29M1955.06,166.36c15.26,8.58,24.86-16.42,14.68-18.46-7.41-1.45-13.81,7.56-14.68,18.46"/>
          <path class="cls-31" d="M2108.99,118.53c-1.16,2.18-9.89,6.25-15.84,21.66l-17.44,44.33c-4.51,11.48,3.05,9.3,2.33,11.92-.29.73-1.31,1.31-2.03,1.31-.44,0-7.85-1.75-13.81-1.75s-13.95,1.75-14.54,1.75c-.87,0-1.6-.44-1.89-1.02-.73-2.76,6.69-.87,2.32-12.21l-21.66-54.51c-4.51-11.48-10.76-9.3-11.92-11.34-.44-.87.29-1.89,1.16-1.89.73,0,11.48,1.89,18.46,1.89s14.53-1.89,15.26-1.89c1.16,0,2.04.44,1.89,1.16-.44,2.04-6.69.58-2.18,12.06l20.64,52.18,16.72-42.3c3.34-8.43-.44-17.73-5.67-20.79-1.31-.73-.58-2.33,1.02-2.33.44,0,7.99,1.89,13.37,1.89,4.8,0,12.5-1.89,12.94-1.89.73,0,1.31,1.02.87,1.74"/>
          <path class="cls-31" d="M2116.11,196.01c-5.23,0-12.21,1.74-13.95,1.74-.73,0-1.6-.58-1.45-1.45.29-2.04,7.12-.44,7.12-11.77v-18.61c0-11.48-7.27-12.5-7.12-14.53,0-.73.73-1.31,1.45-1.31,6.98,0,16.86-5.67,18.75-8,1.74-2.03,3.49-1.6,3.49.29v42.15c0,11.34,6.83,9.74,7.12,11.77.15.87-.73,1.45-1.6,1.45-1.6,0-8.58-1.74-13.81-1.74M2106.95,129c0-5.09,4.07-9.16,9.01-9.16s9.16,4.07,9.16,9.16-4.07,9.01-9.16,9.01-9.01-4.07-9.01-9.01"/>
          <path class="cls-31" d="M2224.25,196.3c.15.87-.73,1.45-1.45,1.45-.58,0-13.81-3.93-22.24,0v-6.83c-2.62,3.49-9.45,6.83-19.33,6.83-16.57,0-21.95-18.75-2.33-26.31,7.7-3.05,21.51-4.94,21.51-12.21,0-9.59-14.83-15.55-31.83-2.91-5.96,4.36-11.05,10.47-13.37,17.15v11.05c0,11.34,6.83,9.74,7.12,11.77.15.87-.73,1.45-1.6,1.45-1.6,0-8.58-1.75-13.81-1.75s-12.21,1.75-13.95,1.75c-.73,0-1.6-.58-1.45-1.45.29-2.03,7.12-.44,7.12-11.77v-18.61c0-11.48-7.27-12.5-7.12-14.54,0-.73.73-1.31,1.45-1.31,6.98,0,16.86-5.67,18.75-7.99,1.6-2.04,3.49-1.6,3.49.29v19.04c9.59-14.1,26.02-20.64,36.92-20.64,14.83,0,25,6.4,25,22.97v20.79c0,11.34,6.83,9.74,7.12,11.77M2200.55,183.8v-14.54c-3.63,3.05-18.75,7.7-16.72,15.7,2.03,7.41,11.19,5.52,16.72-1.16"/>
          <path class="cls-31" d="M2250.26,146.01c-4.51.15-7.56,2.91-6.54,7.56,1.6,6.69,12.5,10.32,18.89,14.24l1.46.87c4.21,2.91,6.83,7.12,7.7,10.76,2.03,8.58-5.53,17.44-20.79,18.17-14.83.73-24.42-3.93-26.02-10.47-2.33-10.18,16.57-12.06,19.04-3.34-6.98,2.04-3.2,8.72,2.91,8.58,4.51,0,7.7-2.76,6.54-7.56-1.6-6.54-12.06-10.47-18.46-14.25l-1.6-1.02c-4.07-2.76-6.98-6.98-7.85-10.61-2.03-8.43,5.38-17.3,20.79-18.17,14.83-.73,24.28,3.92,25.87,10.61,2.47,10.18-16.57,12.06-19.04,3.34,6.98-2.04,3.34-8.72-2.91-8.72"/>
          <path class="cls-31" d="M2331.95,197.75c-.58,0-13.81-3.93-22.24,0v-6.83c-2.62,3.49-9.3,6.83-19.33,6.83-16.42,0-21.95-18.75-2.33-26.31,7.85-3.05,21.66-4.94,21.66-12.21s-3.63-13.66-10.47-12.64c-7.85,1.31-8.43,13.23-.44,13.23,0,10.47-20.93,12.06-20.93-1.45,0-9.45,10.47-17.59,23.4-17.59,14.83,0,25.15,6.4,25.15,22.97v20.79c0,11.34,6.69,9.74,6.98,11.77.15.87-.73,1.45-1.45,1.45M2309.71,169.26c-3.49,3.05-18.75,7.7-16.57,15.7,1.89,7.41,11.05,5.52,16.57-1.16v-14.54Z"/>
          <path class="cls-31" d="M2372.36,184.96c-6.25,15.84-36.77,20.06-36.77-6.25v-32.12h-8.43v-4.36c12.21,0,19.62-18.61,21.66-20.93,1.6-2.03,3.49-1.6,3.49.29v19.19h18.32v5.81h-18.32v31.4c0,19.77,10.9,13.95,15.7,6.98,1.6-2.33,5.23-2.03,4.36,0"/>
          <path class="cls-19" d="M1769.75,181.27c-4.05,4.29-3.18,8.26-3.04,11.36.09,2.05-.83,3.97-1.24,4.41l-.02-.04c.02-.39-.11-.93-.45-1.61-6.37-12.7-4.6-31.64,4.28-36.4,1.03-.55,1.82-1.16,2.43-1.8l.04.02c1.79,2.52,5.03,16.63-2,24.07Z"/>
          <path class="cls-19" d="M1747.97,145.75s8.59,9.74,21.72-.46c0,0,8.46,8.94-.42,13.7-8.88,4.76-10.65,23.7-4.28,36.4,2.52,5.02-6.13,2.29-8.27-10.53-2.14-12.82-2.56-9.94-7.77-17.68-5.21-7.74-.98-21.44-.98-21.44Z"/>
          <path class="cls-19" d="M1765.54,196.73s-2.76-4.78-.29-15.17c3.02-12.73,7.43-16.31,3.43-22.24"/>
          <path class="cls-19" d="M1769.7,145.29c-13.13,10.19-21.72.45-21.72.45,0,0-3.55-5.7,1.34-11.31,0,0,7.82,6.97,17.93.24,0,0,5,2.33,2.45,10.61Z"/>
          <path class="cls-19" d="M1767.25,134.68c-9.9,6.59-17.61.05-17.92-.23h-.01s-3.81-5.59,3.12-11.26c0,0,8.31,5.35,14.18.35,0,0,3.5,6.23.64,11.14Z"/>
          <path class="cls-19" d="M1766.46,123.54l-.04.14c-5.85,4.74-14-.5-14-.5,0,0,1.47-4.05,4.42-5.8,0,0,2.78,2.18,6.67.27,0,0,3.35,2.46,2.95,5.89Z"/>
          <path class="cls-19" d="M1763.52,117.65c-3.81,1.86-6.55-.18-6.67-.27h0s.21-4.78,3.45-6.36c0,0,3.3,2.16,3.22,6.63Z"/>
          <path class="cls-19" d="M1751.14,151s-2.06,1.96-2.16,3.33c-.1,1.37,1.27,3.11,1.27,3.11,0,0,1.86-1.63,2.14-2.49.49-1.5-1.25-3.94-1.25-3.94Z"/>
          <path class="cls-19" d="M1751.27,137.83s-1.71,1.32-1.89,2.35c-.18,1.03.72,2.45.72,2.45,0,0,1.53-1.09,1.82-1.72.49-1.1-.64-3.08-.64-3.08Z"/>
          <path class="cls-19" d="M1754.16,126.44s-1.71,1.32-1.89,2.35c-.18,1.03.72,2.45.72,2.45,0,0,1.53-1.09,1.82-1.72.49-1.1-.64-3.08-.64-3.08Z"/>
          <path class="cls-19" d="M1763.76,126.91s-.73,2.04-.33,3c.4.96,1.93,1.68,1.93,1.68,0,0,.7-1.74.6-2.43-.18-1.19-2.2-2.25-2.2-2.25Z"/>
          <path class="cls-19" d="M1759.07,127.38s-1.43,1.63-1.4,2.67c.02,1.04,1.18,2.27,1.18,2.27,0,0,1.29-1.37,1.45-2.04.27-1.17-1.23-2.9-1.23-2.9Z"/>
          <path class="cls-19" d="M1757.8,119.53s-1.32,1.22-1.39,2.08c-.07.86.78,1.97.78,1.97,0,0,1.19-1.01,1.37-1.55.32-.94-.76-2.5-.76-2.5Z"/>
          <path class="cls-19" d="M1761.31,119.89s-.9,1.55-.71,2.4c.19.84,1.33,1.65,1.33,1.65,0,0,.83-1.32.85-1.89.03-.99-1.46-2.16-1.46-2.16Z"/>
          <path class="cls-19" d="M1760.12,113.46s-.99,1.14-.97,1.86.83,1.57.83,1.57c0,0,.9-.95,1-1.42.18-.81-.86-2.01-.86-2.01Z"/>
          <path class="cls-19" d="M1756.27,139.34s-1.44,1.61-1.43,2.66c.01,1.04,1.16,2.28,1.16,2.28,0,0,1.31-1.35,1.47-2.02.28-1.17-1.2-2.91-1.2-2.91Z"/>
          <path class="cls-19" d="M1761.12,139.55s-.98,1.93-.71,2.93,1.7,1.91,1.7,1.91c0,0,.92-1.64.9-2.33-.03-1.2-1.9-2.51-1.9-2.51Z"/>
          <path class="cls-19" d="M1765.41,137.78s-.55,2.09-.07,3.02c.49.92,2.07,1.5,2.07,1.5,0,0,.55-1.8.39-2.47-.28-1.17-2.39-2.05-2.39-2.05Z"/>
          <path class="cls-19" d="M1767.87,149.38s-1.27,2.38-.86,3.7,2.34,2.64,2.34,2.64c0,0,1.19-2.02,1.15-2.91-.07-1.55-2.63-3.44-2.63-3.44Z"/>
          <path class="cls-19" d="M1756.88,153.01s-1.66,1.92-1.6,3.16c.06,1.24,1.48,2.71,1.48,2.71,0,0,1.51-1.61,1.67-2.41.29-1.39-1.55-3.47-1.55-3.47Z"/>
          <path class="cls-19" d="M1762.57,153.09s-1.18,1.82-.96,2.9c.22,1.07,1.66,2.22,1.66,2.22,0,0,1.09-1.54,1.13-2.25.06-1.23-1.83-2.86-1.83-2.86Z"/>
          <path class="cls-19" d="M1747.04,142.77s10.03,8.79,22.93.29"/>
          <path class="cls-19" d="M1748.39,130.94s9.08,7.72,19.79.61"/>
          <path class="cls-19" d="M1768,159.75s-10.11,6.31-21.4-.77"/>
          <path class="cls-19" d="M1751.13,161.28s-1.41,2.6,4.82,12.52c3.54,5.64,2.27,20.04,8.85,23.87"/>
          <path class="cls-19" d="M2386.55,181.27c4.05,4.29,3.18,8.26,3.04,11.36-.09,2.05.83,3.97,1.24,4.41l.02-.04c-.02-.39.11-.93.45-1.61,6.37-12.7,4.6-31.64-4.28-36.4-1.03-.55-1.83-1.16-2.43-1.8l-.04.02c-1.79,2.52-5.03,16.63,2,24.07Z"/>
          <path class="cls-19" d="M2408.33,145.75s-8.6,9.74-21.72-.46c0,0-8.47,8.94.42,13.7,8.88,4.76,10.65,23.7,4.28,36.4-2.52,5.02,6.13,2.29,8.27-10.53,2.14-12.82,2.56-9.94,7.77-17.68,5.21-7.74.98-21.44.98-21.44Z"/>
          <path class="cls-19" d="M2390.76,196.73s2.75-4.78.29-15.17c-3.02-12.73-7.43-16.31-3.43-22.24"/>
          <path class="cls-19" d="M2386.61,145.29c13.13,10.19,21.72.45,21.72.45,0,0,3.54-5.7-1.34-11.31,0,0-7.82,6.97-17.93.24,0,0-5,2.33-2.45,10.61Z"/>
          <path class="cls-19" d="M2389.05,134.68c9.9,6.59,17.6.05,17.92-.23h.01s3.8-5.59-3.12-11.26c0,0-8.31,5.35-14.18.35,0,0-3.5,6.23-.64,11.14Z"/>
          <path class="cls-19" d="M2389.84,123.54l.03.14c5.85,4.74,14-.5,14-.5,0,0-1.47-4.05-4.42-5.8,0,0-2.78,2.18-6.67.27,0,0-3.35,2.46-2.94,5.89Z"/>
          <path class="cls-19" d="M2392.79,117.65c3.81,1.86,6.55-.18,6.66-.27h0s-.21-4.78-3.45-6.36c0,0-3.3,2.16-3.22,6.63Z"/>
          <path class="cls-19" d="M2405.17,151s2.06,1.96,2.16,3.33c.1,1.37-1.27,3.11-1.27,3.11,0,0-1.86-1.63-2.14-2.49-.49-1.5,1.26-3.94,1.26-3.94Z"/>
          <path class="cls-19" d="M2405.03,137.83s1.71,1.32,1.89,2.35c.18,1.03-.72,2.45-.72,2.45,0,0-1.53-1.09-1.82-1.72-.49-1.1.64-3.08.64-3.08Z"/>
          <path class="cls-19" d="M2402.14,126.44s1.71,1.32,1.89,2.35c.18,1.03-.72,2.45-.72,2.45,0,0-1.53-1.09-1.82-1.72-.49-1.1.64-3.08.64-3.08Z"/>
          <path class="cls-19" d="M2392.54,126.91s.73,2.04.33,3c-.4.96-1.93,1.68-1.93,1.68,0,0-.7-1.74-.6-2.43.18-1.19,2.2-2.25,2.2-2.25Z"/>
          <path class="cls-19" d="M2397.23,127.38s1.42,1.63,1.4,2.67c-.02,1.04-1.18,2.27-1.18,2.27,0,0-1.29-1.37-1.45-2.04-.27-1.17,1.23-2.9,1.23-2.9Z"/>
          <path class="cls-19" d="M2398.5,119.53s1.32,1.22,1.39,2.08c.07.86-.78,1.97-.78,1.97,0,0-1.19-1.01-1.37-1.55-.32-.94.76-2.5.76-2.5Z"/>
          <path class="cls-19" d="M2395,119.89s.9,1.55.71,2.4c-.19.84-1.33,1.65-1.33,1.65,0,0-.83-1.32-.85-1.89-.03-.99,1.46-2.16,1.46-2.16Z"/>
          <path class="cls-19" d="M2396.18,113.46s.99,1.14.97,1.86-.83,1.57-.83,1.57c0,0-.9-.95-1-1.42-.18-.81.86-2.01.86-2.01Z"/>
          <path class="cls-19" d="M2400.04,139.34s1.44,1.61,1.43,2.66c-.01,1.04-1.16,2.28-1.16,2.28,0,0-1.31-1.35-1.47-2.02-.28-1.17,1.2-2.91,1.2-2.91Z"/>
          <path class="cls-19" d="M2395.19,139.55s.98,1.93.7,2.93c-.28,1-1.7,1.91-1.7,1.91,0,0-.92-1.64-.9-2.33.03-1.2,1.9-2.51,1.9-2.51Z"/>
          <path class="cls-19" d="M2390.89,137.78s.55,2.09.06,3.02c-.48.92-2.07,1.5-2.07,1.5,0,0-.55-1.8-.39-2.47.28-1.17,2.39-2.05,2.39-2.05Z"/>
          <path class="cls-19" d="M2388.43,149.38s1.26,2.38.86,3.7-2.34,2.64-2.34,2.64c0,0-1.19-2.02-1.15-2.91.07-1.55,2.63-3.44,2.63-3.44Z"/>
          <path class="cls-19" d="M2399.42,153.01s1.66,1.92,1.6,3.16c-.06,1.24-1.48,2.71-1.48,2.71,0,0-1.51-1.61-1.67-2.41-.29-1.39,1.55-3.47,1.55-3.47Z"/>
          <path class="cls-19" d="M2393.73,153.09s1.18,1.82.96,2.9c-.22,1.07-1.66,2.22-1.66,2.22,0,0-1.09-1.54-1.13-2.25-.06-1.23,1.83-2.86,1.83-2.86Z"/>
          <path class="cls-19" d="M2409.26,142.77s-10.03,8.79-22.94.29"/>
          <path class="cls-19" d="M2407.92,130.94s-9.08,7.72-19.8.61"/>
          <path class="cls-19" d="M2388.31,159.75s10.11,6.31,21.4-.77"/>
          <path class="cls-19" d="M2405.18,161.28s1.41,2.6-4.82,12.52c-3.54,5.64-2.27,20.04-8.85,23.87"/>
          <line class="cls-19" x1="1746.36" y1="206.39" x2="2409.95" y2="206.39"/>
        </g>
        <text class="cls-16" transform="translate(1782.15 235.62)"><tspan class="cls-11" x="0" y="0">C</tspan><tspan class="cls-28" x="25.17" y="0">on</tspan><tspan class="cls-35" x="67.09" y="0">n</tspan><tspan class="cls-28" x="87.88" y="0">ecti</tspan><tspan class="cls-11" x="148.56" y="0">n</tspan><tspan class="cls-38" x="169.34" y="0">g </tspan><tspan class="cls-35" x="200.92" y="0">h</tspan><tspan class="cls-28" x="221.71" y="0">ea</tspan><tspan class="cls-35" x="264.33" y="0">r</tspan><tspan class="cls-28" x="276.52" y="0">t</tspan><tspan class="cls-11" x="288.55" y="0">s</tspan><tspan class="cls-38" x="305.43" y="0" xml:space="preserve"> t</tspan><tspan class="cls-35" x="326.88" y="0">hr</tspan><tspan class="cls-28" x="359.86" y="0">o</tspan><tspan class="cls-35" x="380.96" y="0">u</tspan><tspan class="cls-28" x="401.75" y="0">g</tspan><tspan class="cls-11" x="423.9" y="0">h</tspan><tspan class="cls-38" x="444.69" y="0"> </tspan><tspan class="cls-11" x="454.11" y="0">he</tspan><tspan class="cls-38" x="495.34" y="0">ritag</tspan><tspan x="571.89" y="0">e</tspan></text>
      </g>
      <g class="cls-2">
        <g class="cls-3">
          <path class="cls-31" d="M2711.55,140.38c.44,1.89-2.04,2.47-2.91.87-2.32-3.78-14.39-15.12-23.84-15.12h-4.94v61.34c0,11.34,6.83,9.74,7.12,11.77.15.87-.73,1.45-1.45,1.45-.87,0-9.3-2.04-16.13-2.04s-15.26,2.04-16.13,2.04-1.6-.58-1.45-1.45c.29-2.04,6.98-.44,6.98-11.77v-61.34h-4.94c-9.45,0-21.51,11.34-23.69,15.12-.87,1.6-3.34,1.02-3.05-.87.58-3.34,3.05-20.64,3.05-20.64h78.49s2.47,17.3,2.91,20.64"/>
          <path class="cls-31" d="M2780.15,199.25c.14.87-.58,1.45-1.45,1.45-1.74,0-8.72-1.74-13.81-1.74s-12.21,1.74-13.95,1.74c-.73,0-1.6-.58-1.45-1.45.29-2.03,6.98-.44,6.98-11.77v-18.46c0-18.32-13.52-19.77-21.08-10.03v28.49c0,11.34,6.83,9.74,7.12,11.77.15.87-.73,1.45-1.45,1.45-1.74,0-8.72-1.74-13.95-1.74s-12.21,1.74-13.95,1.74c-.73,0-1.6-.58-1.45-1.45.29-2.03,7.12-.44,7.12-11.77v-48.4c0-11.34-7.27-12.5-7.12-14.54,0-.73.73-1.31,1.45-1.31,6.98,0,16.86-5.67,18.75-7.99,1.74-1.89,3.49-1.6,3.49.44v33.87c1.6-1.16,8.29-5.82,15.12-5.82,14.24,0,22.67,9.59,22.67,25.29v18.46c0,11.34,6.69,9.74,6.98,11.77"/>
          <path class="cls-31" d="M2834.8,185.3c-4.65,8.58-15.41,15.41-26.02,15.41-16.42,0-29.8-12.79-29.8-28.49s13.37-28.49,29.8-28.49c22.97,0,29.51,18.46,19.48,28.78-7.56,7.99-25.15,10.03-30.09,1.45,1.16,22.1,24.71,19.48,33,11.05,2.03-2.18,4.8-1.89,3.63.29M2798.32,169.31c15.26,8.58,24.86-16.42,14.68-18.46-7.41-1.45-13.81,7.56-14.68,18.46"/>
          <path class="cls-31" d="M2952.25,121.49c-1.16,2.18-9.89,6.25-15.84,21.66l-17.44,44.33c-4.51,11.48,3.05,9.3,2.33,11.92-.29.73-1.31,1.31-2.03,1.31-.44,0-7.85-1.75-13.81-1.75s-13.95,1.75-14.54,1.75c-.87,0-1.6-.44-1.89-1.02-.73-2.76,6.69-.87,2.32-12.21l-21.66-54.51c-4.51-11.48-10.76-9.3-11.92-11.34-.44-.87.29-1.89,1.16-1.89.73,0,11.48,1.89,18.46,1.89s14.53-1.89,15.26-1.89c1.16,0,2.04.44,1.89,1.16-.44,2.04-6.69.58-2.18,12.06l20.64,52.18,16.72-42.3c3.34-8.43-.44-17.73-5.67-20.79-1.31-.73-.58-2.33,1.02-2.33.44,0,7.99,1.89,13.37,1.89,4.8,0,12.5-1.89,12.94-1.89.73,0,1.31,1.02.87,1.74"/>
          <path class="cls-31" d="M2959.37,198.96c-5.23,0-12.21,1.74-13.95,1.74-.73,0-1.6-.58-1.45-1.45.29-2.04,7.12-.44,7.12-11.77v-18.61c0-11.48-7.27-12.5-7.12-14.53,0-.73.73-1.31,1.45-1.31,6.98,0,16.86-5.67,18.75-8,1.74-2.03,3.49-1.6,3.49.29v42.15c0,11.34,6.83,9.74,7.12,11.77.15.87-.73,1.45-1.6,1.45-1.6,0-8.58-1.74-13.81-1.74M2950.21,131.95c0-5.09,4.07-9.16,9.01-9.16s9.16,4.07,9.16,9.16-4.07,9.01-9.16,9.01-9.01-4.07-9.01-9.01"/>
          <path class="cls-31" d="M3067.51,199.25c.15.87-.73,1.45-1.45,1.45-.58,0-13.81-3.93-22.24,0v-6.83c-2.62,3.49-9.45,6.83-19.33,6.83-16.57,0-21.95-18.75-2.33-26.31,7.7-3.05,21.51-4.94,21.51-12.21,0-9.59-14.83-15.55-31.83-2.91-5.96,4.36-11.05,10.47-13.37,17.15v11.05c0,11.34,6.83,9.74,7.12,11.77.15.87-.73,1.45-1.6,1.45-1.6,0-8.58-1.75-13.81-1.75s-12.21,1.75-13.95,1.75c-.73,0-1.6-.58-1.45-1.45.29-2.03,7.12-.44,7.12-11.77v-18.61c0-11.48-7.27-12.5-7.12-14.54,0-.73.73-1.31,1.45-1.31,6.98,0,16.86-5.67,18.75-7.99,1.6-2.04,3.49-1.6,3.49.29v19.04c9.59-14.1,26.02-20.64,36.92-20.64,14.83,0,25,6.4,25,22.97v20.79c0,11.34,6.83,9.74,7.12,11.77M3043.82,186.75v-14.54c-3.63,3.05-18.75,7.7-16.72,15.7,2.03,7.41,11.19,5.52,16.72-1.16"/>
          <path class="cls-31" d="M3093.52,148.96c-4.51.15-7.56,2.91-6.54,7.56,1.6,6.69,12.5,10.32,18.89,14.24l1.46.87c4.21,2.91,6.83,7.12,7.7,10.76,2.03,8.58-5.53,17.44-20.79,18.17-14.83.73-24.42-3.93-26.02-10.47-2.33-10.18,16.57-12.06,19.04-3.34-6.98,2.04-3.2,8.72,2.91,8.58,4.51,0,7.7-2.76,6.54-7.56-1.6-6.54-12.06-10.47-18.46-14.25l-1.6-1.02c-4.07-2.76-6.98-6.98-7.85-10.61-2.03-8.43,5.38-17.3,20.79-18.17,14.83-.73,24.28,3.92,25.87,10.61,2.47,10.18-16.57,12.06-19.04,3.34,6.98-2.04,3.34-8.72-2.91-8.72"/>
          <path class="cls-31" d="M3175.21,200.71c-.58,0-13.81-3.93-22.24,0v-6.83c-2.62,3.49-9.3,6.83-19.33,6.83-16.42,0-21.95-18.75-2.33-26.31,7.85-3.05,21.66-4.94,21.66-12.21s-3.63-13.66-10.47-12.64c-7.85,1.31-8.43,13.23-.44,13.23,0,10.47-20.93,12.06-20.93-1.45,0-9.45,10.47-17.59,23.4-17.59,14.83,0,25.15,6.4,25.15,22.97v20.79c0,11.34,6.69,9.74,6.98,11.77.15.87-.73,1.45-1.45,1.45M3152.97,172.22c-3.49,3.05-18.75,7.7-16.57,15.7,1.89,7.41,11.05,5.52,16.57-1.16v-14.54Z"/>
          <path class="cls-31" d="M3215.62,187.92c-6.25,15.84-36.77,20.06-36.77-6.25v-32.12h-8.43v-4.36c12.21,0,19.62-18.61,21.66-20.93,1.6-2.03,3.49-1.6,3.49.29v19.19h18.32v5.81h-18.32v31.4c0,19.77,10.9,13.95,15.7,6.98,1.6-2.33,5.23-2.03,4.36,0"/>
          <line class="cls-19" x1="2607.8" y1="209.34" x2="3218.89" y2="209.34"/>
          <path class="cls-19" d="M3218.29,209.34c10.02,0,18.14,8.12,18.14,18.14,0,8.01-6.5,14.51-14.51,14.51-6.41,0-11.61-5.2-11.61-11.61,0-5.13,4.16-9.29,9.29-9.29,4.1,0,7.43,3.33,7.43,7.43,0,3.28-2.66,5.94-5.95,5.94-2.63,0-4.76-2.13-4.76-4.76,0-2.1,1.7-3.81,3.8-3.81,1.68,0,3.04,1.36,3.04,3.04,0,1.34-1.09,2.43-2.43,2.43-1.08,0-1.95-.87-1.95-1.95,0-.86.7-1.56,1.56-1.56"/>
          <path class="cls-19" d="M2608.53,209.34c-10.02,0-18.14-8.12-18.14-18.14,0-8.01,6.5-14.51,14.51-14.51,6.41,0,11.61,5.2,11.61,11.61,0,5.13-4.16,9.29-9.29,9.29-4.1,0-7.43-3.33-7.43-7.43,0-3.28,2.66-5.94,5.94-5.94,2.63,0,4.76,2.13,4.76,4.76,0,2.1-1.7,3.8-3.8,3.8-1.68,0-3.04-1.36-3.04-3.04,0-1.35,1.09-2.43,2.43-2.43,1.08,0,1.95.87,1.95,1.95,0,.86-.7,1.56-1.56,1.56"/>
        </g>
        <text class="cls-16" transform="translate(2603.45 242)"><tspan class="cls-13" x="0" y="0">C</tspan><tspan class="cls-20" x="25.26" y="0">o</tspan><tspan class="cls-13" x="46.4" y="0">nn</tspan><tspan class="cls-12" x="88.16" y="0">e</tspan><tspan class="cls-27" x="108.67" y="0">cting </tspan><tspan class="cls-12" x="201.65" y="0">h</tspan><tspan class="cls-27" x="222.5" y="0">ea</tspan><tspan class="cls-12" x="265.25" y="0">r</tspan><tspan class="cls-13" x="277.5" y="0">t</tspan><tspan class="cls-12" x="289.59" y="0">s</tspan><tspan class="cls-27" x="306.54" y="0" xml:space="preserve"> t</tspan><tspan class="cls-12" x="328.12" y="0">hrou</tspan><tspan class="cls-13" x="403.21" y="0">g</tspan><tspan class="cls-12" x="425.42" y="0">h</tspan><tspan class="cls-13" x="446.28" y="0"> </tspan><tspan class="cls-12" x="455.76" y="0">he</tspan><tspan class="cls-13" x="497.12" y="0">ritag</tspan><tspan x="573.98" y="0">e</tspan></text>
      </g>
      <g class="cls-24">
        <g class="cls-9">
          <path class="cls-31" d="M3537.14,140.38c.44,1.89-2.04,2.47-2.91.87-2.32-3.78-14.39-15.12-23.84-15.12h-4.94v61.34c0,11.34,6.83,9.74,7.12,11.77.15.87-.73,1.45-1.45,1.45-.87,0-9.3-2.04-16.13-2.04s-15.26,2.04-16.13,2.04-1.6-.58-1.45-1.45c.29-2.04,6.98-.44,6.98-11.77v-61.34h-4.94c-9.45,0-21.51,11.34-23.69,15.12-.87,1.6-3.34,1.02-3.05-.87.58-3.34,3.05-20.64,3.05-20.64h78.49s2.47,17.3,2.91,20.64"/>
          <path class="cls-31" d="M3605.75,199.25c.14.87-.58,1.45-1.45,1.45-1.74,0-8.72-1.74-13.81-1.74s-12.21,1.74-13.95,1.74c-.73,0-1.6-.58-1.45-1.45.29-2.03,6.98-.44,6.98-11.77v-18.46c0-18.32-13.52-19.77-21.08-10.03v28.49c0,11.34,6.83,9.74,7.12,11.77.15.87-.73,1.45-1.45,1.45-1.74,0-8.72-1.74-13.95-1.74s-12.21,1.74-13.95,1.74c-.73,0-1.6-.58-1.45-1.45.29-2.03,7.12-.44,7.12-11.77v-48.4c0-11.34-7.27-12.5-7.12-14.54,0-.73.73-1.31,1.45-1.31,6.98,0,16.86-5.67,18.75-7.99,1.74-1.89,3.49-1.6,3.49.44v33.87c1.6-1.16,8.29-5.82,15.12-5.82,14.24,0,22.67,9.59,22.67,25.29v18.46c0,11.34,6.69,9.74,6.98,11.77"/>
          <path class="cls-31" d="M3660.4,185.3c-4.65,8.58-15.41,15.41-26.02,15.41-16.42,0-29.8-12.79-29.8-28.49s13.37-28.49,29.8-28.49c22.97,0,29.51,18.46,19.48,28.78-7.56,7.99-25.15,10.03-30.09,1.45,1.16,22.1,24.71,19.48,33,11.05,2.03-2.18,4.8-1.89,3.63.29M3623.91,169.31c15.26,8.58,24.86-16.42,14.68-18.46-7.41-1.45-13.81,7.56-14.68,18.46"/>
          <path class="cls-31" d="M3777.84,121.49c-1.16,2.18-9.89,6.25-15.84,21.66l-17.44,44.33c-4.51,11.48,3.05,9.3,2.33,11.92-.29.73-1.31,1.31-2.03,1.31-.44,0-7.85-1.75-13.81-1.75s-13.95,1.75-14.54,1.75c-.87,0-1.6-.44-1.89-1.02-.73-2.76,6.69-.87,2.32-12.21l-21.66-54.51c-4.51-11.48-10.76-9.3-11.92-11.34-.44-.87.29-1.89,1.16-1.89.73,0,11.48,1.89,18.46,1.89s14.53-1.89,15.26-1.89c1.16,0,2.04.44,1.89,1.16-.44,2.04-6.69.58-2.18,12.06l20.64,52.18,16.72-42.3c3.34-8.43-.44-17.73-5.67-20.79-1.31-.73-.58-2.33,1.02-2.33.44,0,7.99,1.89,13.37,1.89,4.8,0,12.5-1.89,12.94-1.89.73,0,1.31,1.02.87,1.74"/>
          <path class="cls-31" d="M3784.96,198.96c-5.23,0-12.21,1.74-13.95,1.74-.73,0-1.6-.58-1.45-1.45.29-2.04,7.12-.44,7.12-11.77v-18.61c0-11.48-7.27-12.5-7.12-14.53,0-.73.73-1.31,1.45-1.31,6.98,0,16.86-5.67,18.75-8,1.74-2.03,3.49-1.6,3.49.29v42.15c0,11.34,6.83,9.74,7.12,11.77.15.87-.73,1.45-1.6,1.45-1.6,0-8.58-1.74-13.81-1.74M3775.8,131.95c0-5.09,4.07-9.16,9.01-9.16s9.16,4.07,9.16,9.16-4.07,9.01-9.16,9.01-9.01-4.07-9.01-9.01"/>
          <path class="cls-31" d="M3893.1,199.25c.15.87-.73,1.45-1.45,1.45-.58,0-13.81-3.93-22.24,0v-6.83c-2.62,3.49-9.45,6.83-19.33,6.83-16.57,0-21.95-18.75-2.33-26.31,7.7-3.05,21.51-4.94,21.51-12.21,0-9.59-14.83-15.55-31.83-2.91-5.96,4.36-11.05,10.47-13.37,17.15v11.05c0,11.34,6.83,9.74,7.12,11.77.15.87-.73,1.45-1.6,1.45-1.6,0-8.58-1.75-13.81-1.75s-12.21,1.75-13.95,1.75c-.73,0-1.6-.58-1.45-1.45.29-2.03,7.12-.44,7.12-11.77v-18.61c0-11.48-7.27-12.5-7.12-14.54,0-.73.73-1.31,1.45-1.31,6.98,0,16.86-5.67,18.75-7.99,1.6-2.04,3.49-1.6,3.49.29v19.04c9.59-14.1,26.02-20.64,36.92-20.64,14.83,0,25,6.4,25,22.97v20.79c0,11.34,6.83,9.74,7.12,11.77M3869.41,186.75v-14.54c-3.63,3.05-18.75,7.7-16.72,15.7,2.03,7.41,11.19,5.52,16.72-1.16"/>
          <path class="cls-31" d="M3919.12,148.96c-4.51.15-7.56,2.91-6.54,7.56,1.6,6.69,12.5,10.32,18.89,14.24l1.46.87c4.21,2.91,6.83,7.12,7.7,10.76,2.03,8.58-5.53,17.44-20.79,18.17-14.83.73-24.42-3.93-26.02-10.47-2.33-10.18,16.57-12.06,19.04-3.34-6.98,2.04-3.2,8.72,2.91,8.58,4.51,0,7.7-2.76,6.54-7.56-1.6-6.54-12.06-10.47-18.46-14.25l-1.6-1.02c-4.07-2.76-6.98-6.98-7.85-10.61-2.03-8.43,5.38-17.3,20.79-18.17,14.83-.73,24.28,3.92,25.87,10.61,2.47,10.18-16.57,12.06-19.04,3.34,6.98-2.04,3.34-8.72-2.91-8.72"/>
          <path class="cls-31" d="M4000.8,200.71c-.58,0-13.81-3.93-22.24,0v-6.83c-2.62,3.49-9.3,6.83-19.33,6.83-16.42,0-21.95-18.75-2.33-26.31,7.85-3.05,21.66-4.94,21.66-12.21s-3.63-13.66-10.47-12.64c-7.85,1.31-8.43,13.23-.44,13.23,0,10.47-20.93,12.06-20.93-1.45,0-9.45,10.47-17.59,23.4-17.59,14.83,0,25.15,6.4,25.15,22.97v20.79c0,11.34,6.69,9.74,6.98,11.77.15.87-.73,1.45-1.45,1.45M3978.56,172.22c-3.49,3.05-18.75,7.7-16.57,15.7,1.89,7.41,11.05,5.52,16.57-1.16v-14.54Z"/>
          <path class="cls-31" d="M4041.21,187.92c-6.25,15.84-36.77,20.06-36.77-6.25v-32.12h-8.43v-4.36c12.21,0,19.62-18.61,21.66-20.93,1.6-2.03,3.49-1.6,3.49.29v19.19h18.32v5.81h-18.32v31.4c0,19.77,10.9,13.95,15.7,6.98,1.6-2.33,5.23-2.03,4.36,0"/>
          <line class="cls-19" x1="3452.67" y1="209.34" x2="4041.34" y2="209.34"/>
        </g>
        <text class="cls-16" transform="translate(3452.67 242)"><tspan class="cls-11" x="0" y="0">C</tspan><tspan class="cls-28" x="25.17" y="0">o</tspan><tspan class="cls-35" x="46.27" y="0">n</tspan><tspan class="cls-38" x="67.06" y="0">n</tspan><tspan class="cls-44" x="87.88" y="0">e</tspan><tspan class="cls-38" x="108.32" y="0">cti</tspan><tspan class="cls-11" x="148.53" y="0">n</tspan><tspan class="cls-28" x="169.31" y="0">g </tspan><tspan class="cls-11" x="200.89" y="0">he</tspan><tspan class="cls-28" x="242.12" y="0">a</tspan><tspan class="cls-35" x="264.27" y="0">r</tspan><tspan class="cls-28" x="276.46" y="0">t</tspan><tspan class="cls-11" x="288.48" y="0">s</tspan><tspan class="cls-38" x="305.37" y="0" xml:space="preserve"> t</tspan><tspan class="cls-35" x="326.82" y="0">hr</tspan><tspan class="cls-28" x="359.79" y="0">ough h</tspan><tspan class="cls-44" x="474.93" y="0">e</tspan><tspan class="cls-38" x="495.37" y="0">ritag</tspan><tspan x="571.92" y="0">e</tspan></text>
      </g>
      <g class="cls-10">
        <g class="cls-17">
          <path class="cls-31" d="M4382.07,140.38c.44,1.89-2.04,2.47-2.91.87-2.32-3.78-14.39-15.12-23.84-15.12h-4.94v61.34c0,11.34,6.83,9.74,7.12,11.77.15.87-.73,1.45-1.45,1.45-.87,0-9.3-2.04-16.13-2.04s-15.26,2.04-16.13,2.04-1.6-.58-1.45-1.45c.29-2.04,6.98-.44,6.98-11.77v-61.34h-4.94c-9.45,0-21.51,11.34-23.69,15.12-.87,1.6-3.34,1.02-3.05-.87.58-3.34,3.05-20.64,3.05-20.64h78.49s2.47,17.3,2.91,20.64"/>
          <path class="cls-31" d="M4450.68,199.25c.14.87-.58,1.45-1.45,1.45-1.74,0-8.72-1.74-13.81-1.74s-12.21,1.74-13.95,1.74c-.73,0-1.6-.58-1.45-1.45.29-2.03,6.98-.44,6.98-11.77v-18.46c0-18.32-13.52-19.77-21.08-10.03v28.49c0,11.34,6.83,9.74,7.12,11.77.15.87-.73,1.45-1.45,1.45-1.74,0-8.72-1.74-13.95-1.74s-12.21,1.74-13.95,1.74c-.73,0-1.6-.58-1.45-1.45.29-2.03,7.12-.44,7.12-11.77v-48.4c0-11.34-7.27-12.5-7.12-14.54,0-.73.73-1.31,1.45-1.31,6.98,0,16.86-5.67,18.75-7.99,1.74-1.89,3.49-1.6,3.49.44v33.87c1.6-1.16,8.29-5.82,15.12-5.82,14.24,0,22.67,9.59,22.67,25.29v18.46c0,11.34,6.69,9.74,6.98,11.77"/>
          <path class="cls-31" d="M4505.33,185.3c-4.65,8.58-15.41,15.41-26.02,15.41-16.42,0-29.8-12.79-29.8-28.49s13.37-28.49,29.8-28.49c22.97,0,29.51,18.46,19.48,28.78-7.56,7.99-25.15,10.03-30.09,1.45,1.16,22.1,24.71,19.48,33,11.05,2.03-2.18,4.8-1.89,3.63.29M4468.84,169.31c15.26,8.58,24.86-16.42,14.68-18.46-7.41-1.45-13.81,7.56-14.68,18.46"/>
          <path class="cls-31" d="M4622.77,121.49c-1.16,2.18-9.89,6.25-15.84,21.66l-17.44,44.33c-4.51,11.48,3.05,9.3,2.33,11.92-.29.73-1.31,1.31-2.03,1.31-.44,0-7.85-1.75-13.81-1.75s-13.95,1.75-14.54,1.75c-.87,0-1.6-.44-1.89-1.02-.73-2.76,6.69-.87,2.32-12.21l-21.66-54.51c-4.51-11.48-10.76-9.3-11.92-11.34-.44-.87.29-1.89,1.16-1.89.73,0,11.48,1.89,18.46,1.89s14.53-1.89,15.26-1.89c1.16,0,2.04.44,1.89,1.16-.44,2.04-6.69.58-2.18,12.06l20.64,52.18,16.72-42.3c3.34-8.43-.44-17.73-5.67-20.79-1.31-.73-.58-2.33,1.02-2.33.44,0,7.99,1.89,13.37,1.89,4.8,0,12.5-1.89,12.94-1.89.73,0,1.31,1.02.87,1.74"/>
          <path class="cls-31" d="M4629.89,198.96c-5.23,0-12.21,1.74-13.95,1.74-.73,0-1.6-.58-1.45-1.45.29-2.04,7.12-.44,7.12-11.77v-18.61c0-11.48-7.27-12.5-7.12-14.53,0-.73.73-1.31,1.45-1.31,6.98,0,16.86-5.67,18.75-8,1.74-2.03,3.49-1.6,3.49.29v42.15c0,11.34,6.83,9.74,7.12,11.77.15.87-.73,1.45-1.6,1.45-1.6,0-8.58-1.74-13.81-1.74M4620.73,131.95c0-5.09,4.07-9.16,9.01-9.16s9.16,4.07,9.16,9.16-4.07,9.01-9.16,9.01-9.01-4.07-9.01-9.01"/>
          <path class="cls-31" d="M4738.03,199.25c.15.87-.73,1.45-1.45,1.45-.58,0-13.81-3.93-22.24,0v-6.83c-2.62,3.49-9.45,6.83-19.33,6.83-16.57,0-21.95-18.75-2.33-26.31,7.7-3.05,21.51-4.94,21.51-12.21,0-9.59-14.83-15.55-31.83-2.91-5.96,4.36-11.05,10.47-13.37,17.15v11.05c0,11.34,6.83,9.74,7.12,11.77.15.87-.73,1.45-1.6,1.45-1.6,0-8.58-1.75-13.81-1.75s-12.21,1.75-13.95,1.75c-.73,0-1.6-.58-1.45-1.45.29-2.03,7.12-.44,7.12-11.77v-18.61c0-11.48-7.27-12.5-7.12-14.54,0-.73.73-1.31,1.45-1.31,6.98,0,16.86-5.67,18.75-7.99,1.6-2.04,3.49-1.6,3.49.29v19.04c9.59-14.1,26.02-20.64,36.92-20.64,14.83,0,25,6.4,25,22.97v20.79c0,11.34,6.83,9.74,7.12,11.77M4714.34,186.75v-14.54c-3.63,3.05-18.75,7.7-16.72,15.7,2.03,7.41,11.19,5.52,16.72-1.16"/>
          <path class="cls-31" d="M4764.04,148.96c-4.51.15-7.56,2.91-6.54,7.56,1.6,6.69,12.5,10.32,18.89,14.24l1.46.87c4.21,2.91,6.83,7.12,7.7,10.76,2.03,8.58-5.53,17.44-20.79,18.17-14.83.73-24.42-3.93-26.02-10.47-2.33-10.18,16.57-12.06,19.04-3.34-6.98,2.04-3.2,8.72,2.91,8.58,4.51,0,7.7-2.76,6.54-7.56-1.6-6.54-12.06-10.47-18.46-14.25l-1.6-1.02c-4.07-2.76-6.98-6.98-7.85-10.61-2.03-8.43,5.38-17.3,20.79-18.17,14.83-.73,24.28,3.92,25.87,10.61,2.47,10.18-16.57,12.06-19.04,3.34,6.98-2.04,3.34-8.72-2.91-8.72"/>
          <path class="cls-31" d="M4845.73,200.71c-.58,0-13.81-3.93-22.24,0v-6.83c-2.62,3.49-9.3,6.83-19.33,6.83-16.42,0-21.95-18.75-2.33-26.31,7.85-3.05,21.66-4.94,21.66-12.21s-3.63-13.66-10.47-12.64c-7.85,1.31-8.43,13.23-.44,13.23,0,10.47-20.93,12.06-20.93-1.45,0-9.45,10.47-17.59,23.4-17.59,14.83,0,25.15,6.4,25.15,22.97v20.79c0,11.34,6.69,9.74,6.98,11.77.15.87-.73,1.45-1.45,1.45M4823.49,172.22c-3.49,3.05-18.75,7.7-16.57,15.7,1.89,7.41,11.05,5.52,16.57-1.16v-14.54Z"/>
          <path class="cls-31" d="M4886.14,187.92c-6.25,15.84-36.77,20.06-36.77-6.25v-32.12h-8.43v-4.36c12.21,0,19.62-18.61,21.66-20.93,1.6-2.03,3.49-1.6,3.49.29v19.19h18.32v5.81h-18.32v31.4c0,19.77,10.9,13.95,15.7,6.98,1.6-2.33,5.23-2.03,4.36,0"/>
          <line class="cls-19" x1="4278.32" y1="209.34" x2="4889.41" y2="209.34"/>
          <path class="cls-19" d="M4888.82,209.34c10.02,0,18.14,8.12,18.14,18.14,0,8.01-6.5,14.51-14.51,14.51-6.41,0-11.61-5.2-11.61-11.61,0-5.13,4.16-9.29,9.29-9.29,4.1,0,7.43,3.33,7.43,7.43,0,3.28-2.66,5.94-5.95,5.94-2.63,0-4.76-2.13-4.76-4.76,0-2.1,1.7-3.81,3.8-3.81,1.68,0,3.04,1.36,3.04,3.04,0,1.34-1.09,2.43-2.43,2.43-1.08,0-1.95-.87-1.95-1.95,0-.86.7-1.56,1.56-1.56"/>
          <path class="cls-19" d="M4279.05,209.34c-10.02,0-18.14-8.12-18.14-18.14,0-8.01,6.5-14.51,14.51-14.51,6.41,0,11.61,5.2,11.61,11.61,0,5.13-4.16,9.29-9.29,9.29-4.1,0-7.43-3.33-7.43-7.43,0-3.28,2.66-5.94,5.94-5.94,2.63,0,4.76,2.13,4.76,4.76,0,2.1-1.7,3.8-3.8,3.8-1.68,0-3.04-1.36-3.04-3.04,0-1.35,1.09-2.43,2.43-2.43,1.08,0,1.95.87,1.95,1.95,0,.86-.7,1.56-1.56,1.56"/>
        </g>
        <text class="cls-16" transform="translate(4273.97 242)"><tspan class="cls-13" x="0" y="0">C</tspan><tspan class="cls-20" x="25.26" y="0">o</tspan><tspan class="cls-13" x="46.4" y="0">nn</tspan><tspan class="cls-12" x="88.16" y="0">e</tspan><tspan class="cls-27" x="108.67" y="0">cting </tspan><tspan class="cls-12" x="201.65" y="0">h</tspan><tspan class="cls-27" x="222.5" y="0">ea</tspan><tspan class="cls-12" x="265.25" y="0">r</tspan><tspan class="cls-13" x="277.5" y="0">t</tspan><tspan class="cls-12" x="289.59" y="0">s</tspan><tspan class="cls-27" x="306.54" y="0" xml:space="preserve"> t</tspan><tspan class="cls-12" x="328.12" y="0">hrou</tspan><tspan class="cls-13" x="403.21" y="0">g</tspan><tspan class="cls-12" x="425.42" y="0">h</tspan><tspan class="cls-13" x="446.28" y="0"> </tspan><tspan class="cls-12" x="455.76" y="0">he</tspan><tspan class="cls-13" x="497.12" y="0">ritag</tspan><tspan x="573.98" y="0">e</tspan></text>
      </g>
      <g class="cls-30">
        <g class="cls-43">
          <path class="cls-31" d="M5207.67,140.38c.44,1.89-2.04,2.47-2.91.87-2.32-3.78-14.39-15.12-23.84-15.12h-4.94v61.34c0,11.34,6.83,9.74,7.12,11.77.15.87-.73,1.45-1.45,1.45-.87,0-9.3-2.04-16.13-2.04s-15.26,2.04-16.13,2.04-1.6-.58-1.45-1.45c.29-2.04,6.98-.44,6.98-11.77v-61.34h-4.94c-9.45,0-21.51,11.34-23.69,15.12-.87,1.6-3.34,1.02-3.05-.87.58-3.34,3.05-20.64,3.05-20.64h78.49s2.47,17.3,2.91,20.64"/>
          <path class="cls-31" d="M5276.27,199.25c.14.87-.58,1.45-1.45,1.45-1.74,0-8.72-1.74-13.81-1.74s-12.21,1.74-13.95,1.74c-.73,0-1.6-.58-1.45-1.45.29-2.03,6.98-.44,6.98-11.77v-18.46c0-18.32-13.52-19.77-21.08-10.03v28.49c0,11.34,6.83,9.74,7.12,11.77.15.87-.73,1.45-1.45,1.45-1.74,0-8.72-1.74-13.95-1.74s-12.21,1.74-13.95,1.74c-.73,0-1.6-.58-1.45-1.45.29-2.03,7.12-.44,7.12-11.77v-48.4c0-11.34-7.27-12.5-7.12-14.54,0-.73.73-1.31,1.45-1.31,6.98,0,16.86-5.67,18.75-7.99,1.74-1.89,3.49-1.6,3.49.44v33.87c1.6-1.16,8.29-5.82,15.12-5.82,14.24,0,22.67,9.59,22.67,25.29v18.46c0,11.34,6.69,9.74,6.98,11.77"/>
          <path class="cls-31" d="M5330.92,185.3c-4.65,8.58-15.41,15.41-26.02,15.41-16.42,0-29.8-12.79-29.8-28.49s13.37-28.49,29.8-28.49c22.97,0,29.51,18.46,19.48,28.78-7.56,7.99-25.15,10.03-30.09,1.45,1.16,22.1,24.71,19.48,33,11.05,2.03-2.18,4.8-1.89,3.63.29M5294.44,169.31c15.26,8.58,24.86-16.42,14.68-18.46-7.41-1.45-13.81,7.56-14.68,18.46"/>
          <path class="cls-31" d="M5448.36,121.49c-1.16,2.18-9.89,6.25-15.84,21.66l-17.44,44.33c-4.51,11.48,3.05,9.3,2.33,11.92-.29.73-1.31,1.31-2.03,1.31-.44,0-7.85-1.75-13.81-1.75s-13.95,1.75-14.54,1.75c-.87,0-1.6-.44-1.89-1.02-.73-2.76,6.69-.87,2.32-12.21l-21.66-54.51c-4.51-11.48-10.76-9.3-11.92-11.34-.44-.87.29-1.89,1.16-1.89.73,0,11.48,1.89,18.46,1.89s14.53-1.89,15.26-1.89c1.16,0,2.04.44,1.89,1.16-.44,2.04-6.69.58-2.18,12.06l20.64,52.18,16.72-42.3c3.34-8.43-.44-17.73-5.67-20.79-1.31-.73-.58-2.33,1.02-2.33.44,0,7.99,1.89,13.37,1.89,4.8,0,12.5-1.89,12.94-1.89.73,0,1.31,1.02.87,1.74"/>
          <path class="cls-31" d="M5455.48,198.96c-5.23,0-12.21,1.74-13.95,1.74-.73,0-1.6-.58-1.45-1.45.29-2.04,7.12-.44,7.12-11.77v-18.61c0-11.48-7.27-12.5-7.12-14.53,0-.73.73-1.31,1.45-1.31,6.98,0,16.86-5.67,18.75-8,1.74-2.03,3.49-1.6,3.49.29v42.15c0,11.34,6.83,9.74,7.12,11.77.15.87-.73,1.45-1.6,1.45-1.6,0-8.58-1.74-13.81-1.74M5446.32,131.95c0-5.09,4.07-9.16,9.01-9.16s9.16,4.07,9.16,9.16-4.07,9.01-9.16,9.01-9.01-4.07-9.01-9.01"/>
          <path class="cls-31" d="M5563.62,199.25c.15.87-.73,1.45-1.45,1.45-.58,0-13.81-3.93-22.24,0v-6.83c-2.62,3.49-9.45,6.83-19.33,6.83-16.57,0-21.95-18.75-2.33-26.31,7.7-3.05,21.51-4.94,21.51-12.21,0-9.59-14.83-15.55-31.83-2.91-5.96,4.36-11.05,10.47-13.37,17.15v11.05c0,11.34,6.83,9.74,7.12,11.77.15.87-.73,1.45-1.6,1.45-1.6,0-8.58-1.75-13.81-1.75s-12.21,1.75-13.95,1.75c-.73,0-1.6-.58-1.45-1.45.29-2.03,7.12-.44,7.12-11.77v-18.61c0-11.48-7.27-12.5-7.12-14.54,0-.73.73-1.31,1.45-1.31,6.98,0,16.86-5.67,18.75-7.99,1.6-2.04,3.49-1.6,3.49.29v19.04c9.59-14.1,26.02-20.64,36.92-20.64,14.83,0,25,6.4,25,22.97v20.79c0,11.34,6.83,9.74,7.12,11.77M5539.93,186.75v-14.54c-3.63,3.05-18.75,7.7-16.72,15.7,2.03,7.41,11.19,5.52,16.72-1.16"/>
          <path class="cls-31" d="M5589.64,148.96c-4.51.15-7.56,2.91-6.54,7.56,1.6,6.69,12.5,10.32,18.89,14.24l1.46.87c4.21,2.91,6.83,7.12,7.7,10.76,2.03,8.58-5.53,17.44-20.79,18.17-14.83.73-24.42-3.93-26.02-10.47-2.33-10.18,16.57-12.06,19.04-3.34-6.98,2.04-3.2,8.72,2.91,8.58,4.51,0,7.7-2.76,6.54-7.56-1.6-6.54-12.06-10.47-18.46-14.25l-1.6-1.02c-4.07-2.76-6.98-6.98-7.85-10.61-2.03-8.43,5.38-17.3,20.79-18.17,14.83-.73,24.28,3.92,25.87,10.61,2.47,10.18-16.57,12.06-19.04,3.34,6.98-2.04,3.34-8.72-2.91-8.72"/>
          <path class="cls-31" d="M5671.32,200.71c-.58,0-13.81-3.93-22.24,0v-6.83c-2.62,3.49-9.3,6.83-19.33,6.83-16.42,0-21.95-18.75-2.33-26.31,7.85-3.05,21.66-4.94,21.66-12.21s-3.63-13.66-10.47-12.64c-7.85,1.31-8.43,13.23-.44,13.23,0,10.47-20.93,12.06-20.93-1.45,0-9.45,10.47-17.59,23.4-17.59,14.83,0,25.15,6.4,25.15,22.97v20.79c0,11.34,6.69,9.74,6.98,11.77.15.87-.73,1.45-1.45,1.45M5649.08,172.22c-3.49,3.05-18.75,7.7-16.57,15.7,1.89,7.41,11.05,5.52,16.57-1.16v-14.54Z"/>
          <path class="cls-31" d="M5711.73,187.92c-6.25,15.84-36.77,20.06-36.77-6.25v-32.12h-8.43v-4.36c12.21,0,19.62-18.61,21.66-20.93,1.6-2.03,3.49-1.6,3.49.29v19.19h18.32v5.81h-18.32v31.4c0,19.77,10.9,13.95,15.7,6.98,1.6-2.33,5.23-2.03,4.36,0"/>
          <line class="cls-19" x1="5123.19" y1="209.34" x2="5711.86" y2="209.34"/>
        </g>
        <text class="cls-16" transform="translate(5123.19 242)"><tspan class="cls-11" x="0" y="0">C</tspan><tspan class="cls-28" x="25.17" y="0">o</tspan><tspan class="cls-35" x="46.27" y="0">n</tspan><tspan class="cls-38" x="67.06" y="0">n</tspan><tspan class="cls-44" x="87.88" y="0">e</tspan><tspan class="cls-38" x="108.32" y="0">cti</tspan><tspan class="cls-11" x="148.53" y="0">n</tspan><tspan class="cls-28" x="169.31" y="0">g </tspan><tspan class="cls-11" x="200.89" y="0">he</tspan><tspan class="cls-28" x="242.12" y="0">a</tspan><tspan class="cls-35" x="264.27" y="0">r</tspan><tspan class="cls-28" x="276.46" y="0">t</tspan><tspan class="cls-11" x="288.48" y="0">s</tspan><tspan class="cls-38" x="305.37" y="0" xml:space="preserve"> t</tspan><tspan class="cls-35" x="326.82" y="0">hr</tspan><tspan class="cls-28" x="359.79" y="0">ough h</tspan><tspan class="cls-44" x="474.93" y="0">e</tspan><tspan class="cls-38" x="495.37" y="0">ritag</tspan><tspan x="571.92" y="0">e</tspan></text>
      </g>
      <g class="cls-33">
        <g class="cls-5">
          <path class="cls-40" d="M6052.6,140.38c.44,1.89-2.04,2.47-2.91.87-2.32-3.78-14.39-15.12-23.84-15.12h-4.94v61.34c0,11.34,6.83,9.74,7.12,11.77.15.87-.73,1.45-1.45,1.45-.87,0-9.3-2.04-16.13-2.04s-15.26,2.04-16.13,2.04-1.6-.58-1.45-1.45c.29-2.04,6.98-.44,6.98-11.77v-61.34h-4.94c-9.45,0-21.51,11.34-23.69,15.12-.87,1.6-3.34,1.02-3.05-.87.58-3.34,3.05-20.64,3.05-20.64h78.49s2.47,17.3,2.91,20.64"/>
          <path class="cls-40" d="M6121.2,199.25c.14.87-.58,1.45-1.45,1.45-1.74,0-8.72-1.74-13.81-1.74s-12.21,1.74-13.95,1.74c-.73,0-1.6-.58-1.45-1.45.29-2.03,6.98-.44,6.98-11.77v-18.46c0-18.32-13.52-19.77-21.08-10.03v28.49c0,11.34,6.83,9.74,7.12,11.77.15.87-.73,1.45-1.45,1.45-1.74,0-8.72-1.74-13.95-1.74s-12.21,1.74-13.95,1.74c-.73,0-1.6-.58-1.45-1.45.29-2.03,7.12-.44,7.12-11.77v-48.4c0-11.34-7.27-12.5-7.12-14.54,0-.73.73-1.31,1.45-1.31,6.98,0,16.86-5.67,18.75-7.99,1.74-1.89,3.49-1.6,3.49.44v33.87c1.6-1.16,8.29-5.82,15.12-5.82,14.24,0,22.67,9.59,22.67,25.29v18.46c0,11.34,6.69,9.74,6.98,11.77"/>
          <path class="cls-40" d="M6175.85,185.3c-4.65,8.58-15.41,15.41-26.02,15.41-16.42,0-29.8-12.79-29.8-28.49s13.37-28.49,29.8-28.49c22.97,0,29.51,18.46,19.48,28.78-7.56,7.99-25.15,10.03-30.09,1.45,1.16,22.1,24.71,19.48,33,11.05,2.03-2.18,4.8-1.89,3.63.29M6139.36,169.31c15.26,8.58,24.86-16.42,14.68-18.46-7.41-1.45-13.81,7.56-14.68,18.46"/>
          <path class="cls-40" d="M6293.29,121.49c-1.16,2.18-9.89,6.25-15.84,21.66l-17.44,44.33c-4.51,11.48,3.05,9.3,2.33,11.92-.29.73-1.31,1.31-2.03,1.31-.44,0-7.85-1.75-13.81-1.75s-13.95,1.75-14.54,1.75c-.87,0-1.6-.44-1.89-1.02-.73-2.76,6.69-.87,2.32-12.21l-21.66-54.51c-4.51-11.48-10.76-9.3-11.92-11.34-.44-.87.29-1.89,1.16-1.89.73,0,11.48,1.89,18.46,1.89s14.53-1.89,15.26-1.89c1.16,0,2.04.44,1.89,1.16-.44,2.04-6.69.58-2.18,12.06l20.64,52.18,16.72-42.3c3.34-8.43-.44-17.73-5.67-20.79-1.31-.73-.58-2.33,1.02-2.33.44,0,7.99,1.89,13.37,1.89,4.8,0,12.5-1.89,12.94-1.89.73,0,1.31,1.02.87,1.74"/>
          <path class="cls-40" d="M6300.41,198.96c-5.23,0-12.21,1.74-13.95,1.74-.73,0-1.6-.58-1.45-1.45.29-2.04,7.12-.44,7.12-11.77v-18.61c0-11.48-7.27-12.5-7.12-14.53,0-.73.73-1.31,1.45-1.31,6.98,0,16.86-5.67,18.75-8,1.74-2.03,3.49-1.6,3.49.29v42.15c0,11.34,6.83,9.74,7.12,11.77.15.87-.73,1.45-1.6,1.45-1.6,0-8.58-1.74-13.81-1.74M6291.25,131.95c0-5.09,4.07-9.16,9.01-9.16s9.16,4.07,9.16,9.16-4.07,9.01-9.16,9.01-9.01-4.07-9.01-9.01"/>
          <path class="cls-40" d="M6408.55,199.25c.15.87-.73,1.45-1.45,1.45-.58,0-13.81-3.93-22.24,0v-6.83c-2.62,3.49-9.45,6.83-19.33,6.83-16.57,0-21.95-18.75-2.33-26.31,7.7-3.05,21.51-4.94,21.51-12.21,0-9.59-14.83-15.55-31.83-2.91-5.96,4.36-11.05,10.47-13.37,17.15v11.05c0,11.34,6.83,9.74,7.12,11.77.15.87-.73,1.45-1.6,1.45-1.6,0-8.58-1.75-13.81-1.75s-12.21,1.75-13.95,1.75c-.73,0-1.6-.58-1.45-1.45.29-2.03,7.12-.44,7.12-11.77v-18.61c0-11.48-7.27-12.5-7.12-14.54,0-.73.73-1.31,1.45-1.31,6.98,0,16.86-5.67,18.75-7.99,1.6-2.04,3.49-1.6,3.49.29v19.04c9.59-14.1,26.02-20.64,36.92-20.64,14.83,0,25,6.4,25,22.97v20.79c0,11.34,6.83,9.74,7.12,11.77M6384.86,186.75v-14.54c-3.63,3.05-18.75,7.7-16.72,15.7,2.03,7.41,11.19,5.52,16.72-1.16"/>
          <path class="cls-40" d="M6434.57,148.96c-4.51.15-7.56,2.91-6.54,7.56,1.6,6.69,12.5,10.32,18.89,14.24l1.46.87c4.21,2.91,6.83,7.12,7.7,10.76,2.03,8.58-5.53,17.44-20.79,18.17-14.83.73-24.42-3.93-26.02-10.47-2.33-10.18,16.57-12.06,19.04-3.34-6.98,2.04-3.2,8.72,2.91,8.58,4.51,0,7.7-2.76,6.54-7.56-1.6-6.54-12.06-10.47-18.46-14.25l-1.6-1.02c-4.07-2.76-6.98-6.98-7.85-10.61-2.03-8.43,5.38-17.3,20.79-18.17,14.83-.73,24.28,3.92,25.87,10.61,2.47,10.18-16.57,12.06-19.04,3.34,6.98-2.04,3.34-8.72-2.91-8.72"/>
          <path class="cls-40" d="M6516.25,200.71c-.58,0-13.81-3.93-22.24,0v-6.83c-2.62,3.49-9.3,6.83-19.33,6.83-16.42,0-21.95-18.75-2.33-26.31,7.85-3.05,21.66-4.94,21.66-12.21s-3.63-13.66-10.47-12.64c-7.85,1.31-8.43,13.23-.44,13.23,0,10.47-20.93,12.06-20.93-1.45,0-9.45,10.47-17.59,23.4-17.59,14.83,0,25.15,6.4,25.15,22.97v20.79c0,11.34,6.69,9.74,6.98,11.77.15.87-.73,1.45-1.45,1.45M6494.01,172.22c-3.49,3.05-18.75,7.7-16.57,15.7,1.89,7.41,11.05,5.52,16.57-1.16v-14.54Z"/>
          <path class="cls-40" d="M6556.66,187.92c-6.25,15.84-36.77,20.06-36.77-6.25v-32.12h-8.43v-4.36c12.21,0,19.62-18.61,21.66-20.93,1.6-2.03,3.49-1.6,3.49.29v19.19h18.32v5.81h-18.32v31.4c0,19.77,10.9,13.95,15.7,6.98,1.6-2.33,5.23-2.03,4.36,0"/>
          <line class="cls-19" x1="5948.84" y1="209.34" x2="6559.93" y2="209.34"/>
          <path class="cls-19" d="M6559.34,209.34c10.02,0,18.14,8.12,18.14,18.14,0,8.01-6.5,14.51-14.51,14.51-6.41,0-11.61-5.2-11.61-11.61,0-5.13,4.16-9.29,9.29-9.29,4.1,0,7.43,3.33,7.43,7.43,0,3.28-2.66,5.94-5.95,5.94-2.63,0-4.76-2.13-4.76-4.76,0-2.1,1.7-3.81,3.8-3.81,1.68,0,3.04,1.36,3.04,3.04,0,1.34-1.09,2.43-2.43,2.43-1.08,0-1.95-.87-1.95-1.95,0-.86.7-1.56,1.56-1.56"/>
          <path class="cls-19" d="M5949.58,209.34c-10.02,0-18.14-8.12-18.14-18.14,0-8.01,6.5-14.51,14.51-14.51,6.41,0,11.61,5.2,11.61,11.61,0,5.13-4.16,9.29-9.29,9.29-4.1,0-7.43-3.33-7.43-7.43,0-3.28,2.66-5.94,5.94-5.94,2.63,0,4.76,2.13,4.76,4.76,0,2.1-1.7,3.8-3.8,3.8-1.68,0-3.04-1.36-3.04-3.04,0-1.35,1.09-2.43,2.43-2.43,1.08,0,1.95.87,1.95,1.95,0,.86-.7,1.56-1.56,1.56"/>
        </g>
        <text class="cls-16" transform="translate(5944.5 242)"><tspan class="cls-13" x="0" y="0">C</tspan><tspan class="cls-20" x="25.26" y="0">o</tspan><tspan class="cls-13" x="46.4" y="0">nn</tspan><tspan class="cls-12" x="88.16" y="0">e</tspan><tspan class="cls-27" x="108.67" y="0">cting </tspan><tspan class="cls-12" x="201.65" y="0">h</tspan><tspan class="cls-27" x="222.5" y="0">ea</tspan><tspan class="cls-12" x="265.25" y="0">r</tspan><tspan class="cls-13" x="277.5" y="0">t</tspan><tspan class="cls-12" x="289.59" y="0">s</tspan><tspan class="cls-27" x="306.54" y="0" xml:space="preserve"> t</tspan><tspan class="cls-12" x="328.12" y="0">hrou</tspan><tspan class="cls-13" x="403.21" y="0">g</tspan><tspan class="cls-12" x="425.42" y="0">h</tspan><tspan class="cls-13" x="446.28" y="0"> </tspan><tspan class="cls-12" x="455.76" y="0">he</tspan><tspan class="cls-13" x="497.12" y="0">ritag</tspan><tspan x="573.98" y="0">e</tspan></text>
      </g>
      <g class="cls-39">
        <g class="cls-4">
          <path class="cls-31" d="M6878.19,140.38c.44,1.89-2.04,2.47-2.91.87-2.32-3.78-14.39-15.12-23.84-15.12h-4.94v61.34c0,11.34,6.83,9.74,7.12,11.77.15.87-.73,1.45-1.45,1.45-.87,0-9.3-2.04-16.13-2.04s-15.26,2.04-16.13,2.04-1.6-.58-1.45-1.45c.29-2.04,6.98-.44,6.98-11.77v-61.34h-4.94c-9.45,0-21.51,11.34-23.69,15.12-.87,1.6-3.34,1.02-3.05-.87.58-3.34,3.05-20.64,3.05-20.64h78.49s2.47,17.3,2.91,20.64"/>
          <path class="cls-31" d="M6946.79,199.25c.14.87-.58,1.45-1.45,1.45-1.74,0-8.72-1.74-13.81-1.74s-12.21,1.74-13.95,1.74c-.73,0-1.6-.58-1.45-1.45.29-2.03,6.98-.44,6.98-11.77v-18.46c0-18.32-13.52-19.77-21.08-10.03v28.49c0,11.34,6.83,9.74,7.12,11.77.15.87-.73,1.45-1.45,1.45-1.74,0-8.72-1.74-13.95-1.74s-12.21,1.74-13.95,1.74c-.73,0-1.6-.58-1.45-1.45.29-2.03,7.12-.44,7.12-11.77v-48.4c0-11.34-7.27-12.5-7.12-14.54,0-.73.73-1.31,1.45-1.31,6.98,0,16.86-5.67,18.75-7.99,1.74-1.89,3.49-1.6,3.49.44v33.87c1.6-1.16,8.29-5.82,15.12-5.82,14.24,0,22.67,9.59,22.67,25.29v18.46c0,11.34,6.69,9.74,6.98,11.77"/>
          <path class="cls-31" d="M7001.44,185.3c-4.65,8.58-15.41,15.41-26.02,15.41-16.42,0-29.8-12.79-29.8-28.49s13.37-28.49,29.8-28.49c22.97,0,29.51,18.46,19.48,28.78-7.56,7.99-25.15,10.03-30.09,1.45,1.16,22.1,24.71,19.48,33,11.05,2.03-2.18,4.8-1.89,3.63.29M6964.96,169.31c15.26,8.58,24.86-16.42,14.68-18.46-7.41-1.45-13.81,7.56-14.68,18.46"/>
          <path class="cls-31" d="M7118.88,121.49c-1.16,2.18-9.89,6.25-15.84,21.66l-17.44,44.33c-4.51,11.48,3.05,9.3,2.33,11.92-.29.73-1.31,1.31-2.03,1.31-.44,0-7.85-1.75-13.81-1.75s-13.95,1.75-14.54,1.75c-.87,0-1.6-.44-1.89-1.02-.73-2.76,6.69-.87,2.32-12.21l-21.66-54.51c-4.51-11.48-10.76-9.3-11.92-11.34-.44-.87.29-1.89,1.16-1.89.73,0,11.48,1.89,18.46,1.89s14.53-1.89,15.26-1.89c1.16,0,2.04.44,1.89,1.16-.44,2.04-6.69.58-2.18,12.06l20.64,52.18,16.72-42.3c3.34-8.43-.44-17.73-5.67-20.79-1.31-.73-.58-2.33,1.02-2.33.44,0,7.99,1.89,13.37,1.89,4.8,0,12.5-1.89,12.94-1.89.73,0,1.31,1.02.87,1.74"/>
          <path class="cls-31" d="M7126,198.96c-5.23,0-12.21,1.74-13.95,1.74-.73,0-1.6-.58-1.45-1.45.29-2.04,7.12-.44,7.12-11.77v-18.61c0-11.48-7.27-12.5-7.12-14.53,0-.73.73-1.31,1.45-1.31,6.98,0,16.86-5.67,18.75-8,1.74-2.03,3.49-1.6,3.49.29v42.15c0,11.34,6.83,9.74,7.12,11.77.15.87-.73,1.45-1.6,1.45-1.6,0-8.58-1.74-13.81-1.74M7116.85,131.95c0-5.09,4.07-9.16,9.01-9.16s9.16,4.07,9.16,9.16-4.07,9.01-9.16,9.01-9.01-4.07-9.01-9.01"/>
          <path class="cls-31" d="M7234.14,199.25c.15.87-.73,1.45-1.45,1.45-.58,0-13.81-3.93-22.24,0v-6.83c-2.62,3.49-9.45,6.83-19.33,6.83-16.57,0-21.95-18.75-2.33-26.31,7.7-3.05,21.51-4.94,21.51-12.21,0-9.59-14.83-15.55-31.83-2.91-5.96,4.36-11.05,10.47-13.37,17.15v11.05c0,11.34,6.83,9.74,7.12,11.77.15.87-.73,1.45-1.6,1.45-1.6,0-8.58-1.75-13.81-1.75s-12.21,1.75-13.95,1.75c-.73,0-1.6-.58-1.45-1.45.29-2.03,7.12-.44,7.12-11.77v-18.61c0-11.48-7.27-12.5-7.12-14.54,0-.73.73-1.31,1.45-1.31,6.98,0,16.86-5.67,18.75-7.99,1.6-2.04,3.49-1.6,3.49.29v19.04c9.59-14.1,26.02-20.64,36.92-20.64,14.83,0,25,6.4,25,22.97v20.79c0,11.34,6.83,9.74,7.12,11.77M7210.45,186.75v-14.54c-3.63,3.05-18.75,7.7-16.72,15.7,2.03,7.41,11.19,5.52,16.72-1.16"/>
          <path class="cls-31" d="M7260.16,148.96c-4.51.15-7.56,2.91-6.54,7.56,1.6,6.69,12.5,10.32,18.89,14.24l1.46.87c4.21,2.91,6.83,7.12,7.7,10.76,2.03,8.58-5.53,17.44-20.79,18.17-14.83.73-24.42-3.93-26.02-10.47-2.33-10.18,16.57-12.06,19.04-3.34-6.98,2.04-3.2,8.72,2.91,8.58,4.51,0,7.7-2.76,6.54-7.56-1.6-6.54-12.06-10.47-18.46-14.25l-1.6-1.02c-4.07-2.76-6.98-6.98-7.85-10.61-2.03-8.43,5.38-17.3,20.79-18.17,14.83-.73,24.28,3.92,25.87,10.61,2.47,10.18-16.57,12.06-19.04,3.34,6.98-2.04,3.34-8.72-2.91-8.72"/>
          <path class="cls-31" d="M7341.84,200.71c-.58,0-13.81-3.93-22.24,0v-6.83c-2.62,3.49-9.3,6.83-19.33,6.83-16.42,0-21.95-18.75-2.33-26.31,7.85-3.05,21.66-4.94,21.66-12.21s-3.63-13.66-10.47-12.64c-7.85,1.31-8.43,13.23-.44,13.23,0,10.47-20.93,12.06-20.93-1.45,0-9.45,10.47-17.59,23.4-17.59,14.83,0,25.15,6.4,25.15,22.97v20.79c0,11.34,6.69,9.74,6.98,11.77.15.87-.73,1.45-1.45,1.45M7319.61,172.22c-3.49,3.05-18.75,7.7-16.57,15.7,1.89,7.41,11.05,5.52,16.57-1.16v-14.54Z"/>
          <path class="cls-31" d="M7382.25,187.92c-6.25,15.84-36.77,20.06-36.77-6.25v-32.12h-8.43v-4.36c12.21,0,19.62-18.61,21.66-20.93,1.6-2.03,3.49-1.6,3.49.29v19.19h18.32v5.81h-18.32v31.4c0,19.77,10.9,13.95,15.7,6.98,1.6-2.33,5.23-2.03,4.36,0"/>
          <line class="cls-19" x1="6793.71" y1="209.34" x2="7382.39" y2="209.34"/>
        </g>
        <text class="cls-16" transform="translate(6793.71 242)"><tspan class="cls-11" x="0" y="0">C</tspan><tspan class="cls-28" x="25.17" y="0">o</tspan><tspan class="cls-35" x="46.27" y="0">n</tspan><tspan class="cls-38" x="67.06" y="0">n</tspan><tspan class="cls-44" x="87.88" y="0">e</tspan><tspan class="cls-38" x="108.32" y="0">cti</tspan><tspan class="cls-11" x="148.53" y="0">n</tspan><tspan class="cls-28" x="169.31" y="0">g </tspan><tspan class="cls-11" x="200.89" y="0">he</tspan><tspan class="cls-28" x="242.12" y="0">a</tspan><tspan class="cls-35" x="264.27" y="0">r</tspan><tspan class="cls-28" x="276.46" y="0">t</tspan><tspan class="cls-11" x="288.48" y="0">s</tspan><tspan class="cls-38" x="305.37" y="0" xml:space="preserve"> t</tspan><tspan class="cls-35" x="326.82" y="0">hr</tspan><tspan class="cls-28" x="359.79" y="0">ough h</tspan><tspan class="cls-44" x="474.93" y="0">e</tspan><tspan class="cls-38" x="495.37" y="0">ritag</tspan><tspan x="571.92" y="0">e</tspan></text>
      </g>
      <g class="cls-6">
        <g class="cls-34">
          <path class="cls-40" d="M-8433.49,531.3c.44,1.89-2.04,2.47-2.91.87-2.32-3.78-14.39-15.12-23.84-15.12h-4.94v61.34c0,11.34,6.83,9.74,7.12,11.77.15.87-.73,1.45-1.45,1.45-.87,0-9.3-2.04-16.13-2.04s-15.26,2.04-16.13,2.04-1.6-.58-1.45-1.45c.29-2.04,6.98-.44,6.98-11.77v-61.34h-4.94c-9.45,0-21.51,11.34-23.69,15.12-.87,1.6-3.34,1.02-3.05-.87.58-3.34,3.05-20.64,3.05-20.64h78.49s2.47,17.3,2.91,20.64"/>
          <path class="cls-40" d="M-8364.89,590.17c.14.87-.58,1.45-1.45,1.45-1.74,0-8.72-1.74-13.81-1.74s-12.21,1.74-13.95,1.74c-.73,0-1.6-.58-1.45-1.45.29-2.03,6.98-.44,6.98-11.77v-18.46c0-18.32-13.52-19.77-21.08-10.03v28.49c0,11.34,6.83,9.74,7.12,11.77.15.87-.73,1.45-1.45,1.45-1.74,0-8.72-1.74-13.95-1.74s-12.21,1.74-13.95,1.74c-.73,0-1.6-.58-1.45-1.45.29-2.03,7.12-.44,7.12-11.77v-48.4c0-11.34-7.27-12.5-7.12-14.54,0-.73.73-1.31,1.45-1.31,6.98,0,16.86-5.67,18.75-7.99,1.74-1.89,3.49-1.6,3.49.44v33.87c1.6-1.16,8.29-5.82,15.12-5.82,14.24,0,22.67,9.59,22.67,25.29v18.46c0,11.34,6.69,9.74,6.98,11.77"/>
          <path class="cls-40" d="M-8310.24,576.22c-4.65,8.58-15.41,15.41-26.02,15.41-16.42,0-29.8-12.79-29.8-28.49s13.37-28.49,29.8-28.49c22.97,0,29.51,18.46,19.48,28.78-7.56,7.99-25.15,10.03-30.09,1.45,1.16,22.1,24.71,19.48,33,11.05,2.03-2.18,4.8-1.89,3.63.29M-8346.72,560.23c15.26,8.58,24.86-16.42,14.68-18.46-7.41-1.45-13.81,7.56-14.68,18.46"/>
          <path class="cls-40" d="M-8192.8,512.4c-1.16,2.18-9.89,6.25-15.84,21.66l-17.44,44.33c-4.51,11.48,3.05,9.3,2.33,11.92-.29.73-1.31,1.31-2.03,1.31-.44,0-7.85-1.75-13.81-1.75s-13.95,1.75-14.54,1.75c-.87,0-1.6-.44-1.89-1.02-.73-2.76,6.69-.87,2.32-12.21l-21.66-54.51c-4.51-11.48-10.76-9.3-11.92-11.34-.44-.87.29-1.89,1.16-1.89.73,0,11.48,1.89,18.46,1.89s14.53-1.89,15.26-1.89c1.16,0,2.04.44,1.89,1.16-.44,2.04-6.69.58-2.18,12.06l20.64,52.18,16.72-42.3c3.34-8.43-.44-17.73-5.67-20.79-1.31-.73-.58-2.33,1.02-2.33.44,0,7.99,1.89,13.37,1.89,4.8,0,12.5-1.89,12.94-1.89.73,0,1.31,1.02.87,1.74"/>
          <path class="cls-40" d="M-8185.68,589.88c-5.23,0-12.21,1.74-13.95,1.74-.73,0-1.6-.58-1.45-1.45.29-2.04,7.12-.44,7.12-11.77v-18.61c0-11.48-7.27-12.5-7.12-14.53,0-.73.73-1.31,1.45-1.31,6.98,0,16.86-5.67,18.75-8,1.74-2.03,3.49-1.6,3.49.29v42.15c0,11.34,6.83,9.74,7.12,11.77.15.87-.73,1.45-1.6,1.45-1.6,0-8.58-1.74-13.81-1.74M-8194.83,522.87c0-5.09,4.07-9.16,9.01-9.16s9.16,4.07,9.16,9.16-4.07,9.01-9.16,9.01-9.01-4.07-9.01-9.01"/>
          <path class="cls-40" d="M-8077.54,590.17c.15.87-.73,1.45-1.45,1.45-.58,0-13.81-3.93-22.24,0v-6.83c-2.62,3.49-9.45,6.83-19.33,6.83-16.57,0-21.95-18.75-2.33-26.31,7.7-3.05,21.51-4.94,21.51-12.21,0-9.59-14.83-15.55-31.83-2.91-5.96,4.36-11.05,10.47-13.37,17.15v11.05c0,11.34,6.83,9.74,7.12,11.77.15.87-.73,1.45-1.6,1.45-1.6,0-8.58-1.75-13.81-1.75s-12.21,1.75-13.95,1.75c-.73,0-1.6-.58-1.45-1.45.29-2.03,7.12-.44,7.12-11.77v-18.61c0-11.48-7.27-12.5-7.12-14.54,0-.73.73-1.31,1.45-1.31,6.98,0,16.86-5.67,18.75-7.99,1.6-2.04,3.49-1.6,3.49.29v19.04c9.59-14.1,26.02-20.64,36.92-20.64,14.83,0,25,6.4,25,22.97v20.79c0,11.34,6.83,9.74,7.12,11.77M-8101.23,577.67v-14.54c-3.63,3.05-18.75,7.7-16.72,15.7,2.03,7.41,11.19,5.52,16.72-1.16"/>
          <path class="cls-40" d="M-8051.52,539.88c-4.51.15-7.56,2.91-6.54,7.56,1.6,6.69,12.5,10.32,18.89,14.24l1.46.87c4.21,2.91,6.83,7.12,7.7,10.76,2.03,8.58-5.53,17.44-20.79,18.17-14.83.73-24.42-3.93-26.02-10.47-2.33-10.18,16.57-12.06,19.04-3.34-6.98,2.04-3.2,8.72,2.91,8.58,4.51,0,7.7-2.76,6.54-7.56-1.6-6.54-12.06-10.47-18.46-14.25l-1.6-1.02c-4.07-2.76-6.98-6.98-7.85-10.61-2.03-8.43,5.38-17.3,20.79-18.17,14.83-.73,24.28,3.92,25.87,10.61,2.47,10.18-16.57,12.06-19.04,3.34,6.98-2.04,3.34-8.72-2.91-8.72"/>
          <path class="cls-40" d="M-7969.84,591.62c-.58,0-13.81-3.93-22.24,0v-6.83c-2.62,3.49-9.3,6.83-19.33,6.83-16.42,0-21.95-18.75-2.33-26.31,7.85-3.05,21.66-4.94,21.66-12.21s-3.63-13.66-10.47-12.64c-7.85,1.31-8.43,13.23-.44,13.23,0,10.47-20.93,12.06-20.93-1.45,0-9.45,10.47-17.59,23.4-17.59,14.83,0,25.15,6.4,25.15,22.97v20.79c0,11.34,6.69,9.74,6.98,11.77.15.87-.73,1.45-1.45,1.45M-7992.08,563.13c-3.49,3.05-18.75,7.7-16.57,15.7,1.89,7.41,11.05,5.52,16.57-1.16v-14.54Z"/>
          <path class="cls-40" d="M-7929.43,578.83c-6.25,15.84-36.77,20.06-36.77-6.25v-32.12h-8.43v-4.36c12.21,0,19.62-18.61,21.66-20.93,1.6-2.03,3.49-1.6,3.49.29v19.19h18.32v5.81h-18.32v31.4c0,19.77,10.9,13.95,15.7,6.98,1.6-2.33,5.23-2.03,4.36,0"/>
          <line class="cls-19" x1="-8537.25" y1="600.26" x2="-7926.16" y2="600.26"/>
          <path class="cls-19" d="M-7926.75,600.26c10.02,0,18.14,8.12,18.14,18.14,0,8.01-6.5,14.51-14.51,14.51-6.41,0-11.61-5.2-11.61-11.61,0-5.13,4.16-9.29,9.29-9.29,4.1,0,7.43,3.33,7.43,7.43,0,3.28-2.66,5.94-5.95,5.94-2.63,0-4.76-2.13-4.76-4.76,0-2.1,1.7-3.81,3.8-3.81,1.68,0,3.04,1.36,3.04,3.04,0,1.34-1.09,2.43-2.43,2.43-1.08,0-1.95-.87-1.95-1.95,0-.86.7-1.56,1.56-1.56"/>
          <path class="cls-19" d="M-8536.51,600.26c-10.02,0-18.14-8.12-18.14-18.14,0-8.01,6.5-14.51,14.51-14.51,6.41,0,11.61,5.2,11.61,11.61,0,5.13-4.16,9.29-9.29,9.29-4.1,0-7.43-3.33-7.43-7.43,0-3.28,2.66-5.94,5.94-5.94,2.63,0,4.76,2.13,4.76,4.76,0,2.1-1.7,3.8-3.8,3.8-1.68,0-3.04-1.36-3.04-3.04,0-1.35,1.09-2.43,2.43-2.43,1.08,0,1.95.87,1.95,1.95,0,.86-.7,1.56-1.56,1.56"/>
        </g>
        <text class="cls-16" transform="translate(-8541.59 632.91)"><tspan class="cls-42" x="0" y="0">C</tspan><tspan class="cls-22" x="25.26" y="0">o</tspan><tspan class="cls-42" x="46.4" y="0">n</tspan><tspan class="cls-8" x="67.28" y="0">n</tspan><tspan class="cls-14" x="88.13" y="0">ecti</tspan><tspan class="cls-22" x="149.07" y="0">n</tspan><tspan class="cls-29" x="169.92" y="0">g </tspan><tspan class="cls-22" x="201.62" y="0">h</tspan><tspan class="cls-14" x="222.47" y="0">ea</tspan><tspan class="cls-22" x="265.22" y="0">r</tspan><tspan class="cls-29" x="277.47" y="0">t</tspan><tspan class="cls-22" x="289.56" y="0">s</tspan><tspan class="cls-14" x="306.51" y="0" xml:space="preserve"> t</tspan><tspan class="cls-22" x="328.09" y="0">hrou</tspan><tspan class="cls-29" x="403.18" y="0">gh </tspan><tspan class="cls-37" x="455.76" y="0">he</tspan><tspan class="cls-26" x="497.12" y="0">ritag</tspan><tspan class="cls-1" x="573.98" y="0">e</tspan></text>
      </g>
    </g>
  </g>
</svg>